<?xml version="1.0" encoding="UTF-8" standalone="no"?>
<svg width="474.839mm" height="63.5mm"
 xmlns="http://www.w3.org/2000/svg" xmlns:xlink="http://www.w3.org/1999/xlink"  version="1.2" baseProfile="tiny">
<title>Qt SVG Document</title>
<desc>Generated with Qt</desc>
<defs>
</defs>
<g fill="none" stroke="black" stroke-width="1" fill-rule="evenodd" stroke-linecap="square" stroke-linejoin="bevel" >

<g fill="none" stroke="#000000" stroke-opacity="1" stroke-width="1" stroke-linecap="square" stroke-linejoin="bevel" transform="matrix(1,0,0,1,0,0)"
font-family="Ubuntu" font-size="11" font-weight="400" font-style="normal" 
>
</g>

<g fill="none" stroke="#000000" stroke-opacity="1" stroke-width="1" stroke-linecap="square" stroke-linejoin="bevel" transform="matrix(1,0,0,1,0,0)"
font-family="Ubuntu" font-size="11" font-weight="400" font-style="normal" 
>
</g>

<g fill="none" stroke="#000000" stroke-opacity="1" stroke-width="1" stroke-linecap="square" stroke-linejoin="bevel" transform="matrix(1.99979,0,0,1.99979,-0.000799918,179.981)"
font-family="Ubuntu" font-size="11" font-weight="400" font-style="normal" 
>
</g>

<g fill="#ffffff" fill-opacity="1" stroke="none" transform="matrix(1.99979,0,0,1.99979,-0.000799918,179.981)"
font-family="Ubuntu" font-size="11" font-weight="400" font-style="normal" 
>
<rect x="0.0004" y="-90" width="673.069" height="90"/>
</g>

<g fill="none" stroke="#000000" stroke-opacity="1" stroke-width="1" stroke-linecap="square" stroke-linejoin="bevel" transform="matrix(1.99979,0,0,1.99979,-0.000799918,179.981)"
font-family="Ubuntu" font-size="11" font-weight="400" font-style="normal" 
>
</g>

<g fill="none" stroke="#000000" stroke-opacity="1" stroke-width="1" stroke-linecap="square" stroke-linejoin="bevel" transform="matrix(1.99979,0,0,1.99979,-0.000799918,179.981)"
font-family="Ubuntu" font-size="11" font-weight="400" font-style="normal" 
>
</g>

<g fill="none" stroke="#000000" stroke-opacity="1" stroke-width="1" stroke-linecap="square" stroke-linejoin="bevel" transform="matrix(1.99979,0,0,1.99979,-0.000799918,179.981)"
font-family="Ubuntu" font-size="11" font-weight="400" font-style="normal" 
>
</g>

<g fill="none" stroke="#000000" stroke-opacity="1" stroke-width="1" stroke-linecap="square" stroke-linejoin="bevel" transform="matrix(1.99979,0,0,1.99979,-0.000799918,179.981)"
font-family="Ubuntu" font-size="11" font-weight="400" font-style="normal" 
>
</g>

<g fill="none" stroke="#000000" stroke-opacity="1" stroke-width="1" stroke-linecap="square" stroke-linejoin="round" transform="matrix(1.99979,0,0,1.99979,-0.000799918,179.981)"
font-family="Ubuntu" font-size="11" font-weight="400" font-style="normal" 
>
<ellipse cx="296.08" cy="-45" rx="55.3936" ry="17.5"/>
</g>

<g fill="none" stroke="#000000" stroke-opacity="1" stroke-width="1" stroke-linecap="square" stroke-linejoin="bevel" transform="matrix(1.99979,0,0,1.99979,-0.000799918,179.981)"
font-family="Ubuntu" font-size="11" font-weight="400" font-style="normal" 
>
</g>

<g fill="none" stroke="#000000" stroke-opacity="1" stroke-width="1" stroke-linecap="square" stroke-linejoin="bevel" transform="matrix(1.99979,0,0,1.99979,523.996,75.9922)"
font-family="Ubuntu" font-size="11" font-weight="400" font-style="normal" 
>
</g>

<g fill="none" stroke="#000000" stroke-opacity="1" stroke-width="1" stroke-linecap="square" stroke-linejoin="bevel" transform="matrix(1.99979,0,0,1.99979,523.996,75.9922)"
font-family="sans" font-size="11" font-weight="100" font-style="normal" 
>
</g>

<g fill="#000000" fill-opacity="1" stroke="#000000" stroke-opacity="1" stroke-width="1" stroke-linecap="square" stroke-linejoin="round" transform="matrix(1.99979,0,0,1.99979,523.996,75.9922)"
font-family="sans" font-size="11" font-weight="100" font-style="normal" 
>
<path vector-effect="none" fill-rule="nonzero" d="M2.79688,2.98438 L3.70313,2.98438 L0.90625,12.0156 L0,12.0156 L2.79688,2.98438 M4.78125,2.98438 L9.39063,2.98438 L9.39063,3.89063 L5.875,3.89063 L5.875,6.25 L9.04688,6.25 L9.04688,7.17188 L5.875,7.17188 L5.875,11 L4.78125,11 L4.78125,2.98438 M10.9531,8.625 L10.9531,4.98438 L11.9375,4.98438 L11.9375,8.59375 C11.9375,9.15625 12.0495,9.58073 12.2734,9.86719 C12.4974,10.1536 12.8281,10.2969 13.2656,10.2969 C13.8073,10.2969 14.2318,10.1276 14.5391,9.78906 C14.8464,9.45052 15,8.98438 15,8.39063 L15,4.98438 L15.9844,4.98438 L15.9844,11 L15,11 L15,10.0781 C14.7604,10.4427 14.4818,10.7135 14.1641,10.8906 C13.8464,11.0677 13.4792,11.1563 13.0625,11.1563 C12.375,11.1563 11.8516,10.9401 11.4922,10.5078 C11.1328,10.0755 10.9531,9.44792 10.9531,8.625 M21.8594,5.15625 L21.8594,6.09375 C21.5781,5.94792 21.2865,5.84115 20.9844,5.77344 C20.6823,5.70573 20.3698,5.67188 20.0469,5.67188 C19.5573,5.67188 19.1901,5.7474 18.9453,5.89844 C18.7005,6.04948 18.5781,6.27083 18.5781,6.5625 C18.5781,6.79167 18.6667,6.97135 18.8438,7.10156 C19.0208,7.23177 19.375,7.35938 19.9063,7.48438 L20.2344,7.5625 C20.9427,7.70833 21.4427,7.91927 21.7344,8.19531 C22.026,8.47135 22.1719,8.85417 22.1719,9.34375 C22.1719,9.89583 21.9531,10.3359 21.5156,10.6641 C21.0781,10.9922 20.4688,11.1563 19.6875,11.1563 C19.3646,11.1563 19.0286,11.125 18.6797,11.0625 C18.3307,11 17.9635,10.9063 17.5781,10.7813 L17.5781,9.76563 C17.9427,9.95313 18.3021,10.0938 18.6563,10.1875 C19.0104,10.2813 19.3646,10.3281 19.7188,10.3281 C20.1771,10.3281 20.5313,10.2474 20.7813,10.0859 C21.0313,9.92448 21.1563,9.70313 21.1563,9.42188 C21.1563,9.15104 21.0677,8.94271 20.8906,8.79688 C20.7135,8.65104 20.3177,8.51563 19.7031,8.39063 L19.3594,8.29688 C18.7448,8.17188 18.3021,7.97656 18.0313,7.71094 C17.7604,7.44531 17.625,7.07813 17.625,6.60938 C17.625,6.04688 17.8255,5.61198 18.2266,5.30469 C18.6276,4.9974 19.1979,4.84375 19.9375,4.84375 C20.3021,4.84375 20.6458,4.86979 20.9688,4.92188 C21.2917,4.97396 21.5885,5.05208 21.8594,5.15625 M23.7344,4.98438 L24.7344,4.98438 L24.7344,11 L23.7344,11 L23.7344,4.98438 M23.7344,2.64063 L24.7344,2.64063 L24.7344,3.89063 L23.7344,3.89063 L23.7344,2.64063 M29.125,5.67188 C28.5938,5.67188 28.1745,5.88021 27.8672,6.29688 C27.5599,6.71354 27.4063,7.28125 27.4063,8 C27.4063,8.71875 27.5573,9.28385 27.8594,9.69531 C28.1615,10.1068 28.5833,10.3125 29.125,10.3125 C29.6458,10.3125 30.0599,10.1068 30.3672,9.69531 C30.6745,9.28385 30.8281,8.71875 30.8281,8 C30.8281,7.28125 30.6745,6.71354 30.3672,6.29688 C30.0599,5.88021 29.6458,5.67188 29.125,5.67188 M29.125,4.84375 C29.9792,4.84375 30.651,5.1224 31.1406,5.67969 C31.6302,6.23698 31.875,7.01042 31.875,8 C31.875,8.97917 31.6302,9.75 31.1406,10.3125 C30.651,10.875 29.9792,11.1563 29.125,11.1563 C28.2604,11.1563 27.5833,10.875 27.0938,10.3125 C26.6042,9.75 26.3594,8.97917 26.3594,8 C26.3594,7.01042 26.6042,6.23698 27.0938,5.67969 C27.5833,5.1224 28.2604,4.84375 29.125,4.84375 M38.5,7.375 L38.5,11 L37.5156,11 L37.5156,7.40625 C37.5156,6.83333 37.4063,6.40625 37.1875,6.125 C36.9688,5.84375 36.6354,5.70313 36.1875,5.70313 C35.6563,5.70313 35.237,5.8724 34.9297,6.21094 C34.6224,6.54948 34.4688,7.01042 34.4688,7.59375 L34.4688,11 L33.4688,11 L33.4688,4.98438 L34.4688,4.98438 L34.4688,5.92188 C34.6979,5.55729 34.974,5.28646 35.2969,5.10938 C35.6198,4.93229 35.9896,4.84375 36.4063,4.84375 C37.0938,4.84375 37.6146,5.05729 37.9688,5.48438 C38.3229,5.91146 38.5,6.54167 38.5,7.375 M40.5156,2.98438 L41.9844,2.98438 L45.5313,9.6875 L45.5313,2.98438 L46.5938,2.98438 L46.5938,11 L45.125,11 L41.5625,4.29688 L41.5625,11 L40.5156,11 L40.5156,2.98438 M51.0313,5.67188 C50.5,5.67188 50.0807,5.88021 49.7734,6.29688 C49.4661,6.71354 49.3125,7.28125 49.3125,8 C49.3125,8.71875 49.4635,9.28385 49.7656,9.69531 C50.0677,10.1068 50.4896,10.3125 51.0313,10.3125 C51.5521,10.3125 51.9661,10.1068 52.2734,9.69531 C52.5807,9.28385 52.7344,8.71875 52.7344,8 C52.7344,7.28125 52.5807,6.71354 52.2734,6.29688 C51.9661,5.88021 51.5521,5.67188 51.0313,5.67188 M51.0313,4.84375 C51.8854,4.84375 52.5573,5.1224 53.0469,5.67969 C53.5365,6.23698 53.7813,7.01042 53.7813,8 C53.7813,8.97917 53.5365,9.75 53.0469,10.3125 C52.5573,10.875 51.8854,11.1563 51.0313,11.1563 C50.1667,11.1563 49.4896,10.875 49,10.3125 C48.5104,9.75 48.2656,8.97917 48.2656,8 C48.2656,7.01042 48.5104,6.23698 49,5.67969 C49.4896,5.1224 50.1667,4.84375 51.0313,4.84375 M59.375,5.89063 L59.375,2.64063 L60.3594,2.64063 L60.3594,11 L59.375,11 L59.375,10.0938 C59.1667,10.4583 58.9036,10.7266 58.5859,10.8984 C58.2682,11.0703 57.8854,11.1563 57.4375,11.1563 C56.7188,11.1563 56.1302,10.8672 55.6719,10.2891 C55.2135,9.71094 54.9844,8.94792 54.9844,8 C54.9844,7.05208 55.2135,6.28906 55.6719,5.71094 C56.1302,5.13281 56.7188,4.84375 57.4375,4.84375 C57.8854,4.84375 58.2682,4.92969 58.5859,5.10156 C58.9036,5.27344 59.1667,5.53646 59.375,5.89063 M56,8 C56,8.72917 56.151,9.29948 56.4531,9.71094 C56.7552,10.1224 57.1667,10.3281 57.6875,10.3281 C58.2083,10.3281 58.6198,10.1224 58.9219,9.71094 C59.224,9.29948 59.375,8.72917 59.375,8 C59.375,7.27083 59.224,6.70052 58.9219,6.28906 C58.6198,5.8776 58.2083,5.67188 57.6875,5.67188 C57.1667,5.67188 56.7552,5.8776 56.4531,6.28906 C56.151,6.70052 56,7.27083 56,8 M67.5313,7.75 L67.5313,8.23438 L62.9844,8.23438 C63.026,8.91146 63.2292,9.42708 63.5938,9.78125 C63.9583,10.1354 64.4688,10.3125 65.125,10.3125 C65.5104,10.3125 65.8802,10.2656 66.2344,10.1719 C66.5885,10.0781 66.9427,9.94271 67.2969,9.76563 L67.2969,10.6875 C66.9427,10.8438 66.5781,10.9609 66.2031,11.0391 C65.8281,11.1172 65.4531,11.1563 65.0781,11.1563 C64.1094,11.1563 63.3464,10.8776 62.7891,10.3203 C62.2318,9.76302 61.9531,9.00521 61.9531,8.04688 C61.9531,7.06771 62.2188,6.28906 62.75,5.71094 C63.2813,5.13281 64,4.84375 64.9063,4.84375 C65.7083,4.84375 66.3464,5.10417 66.8203,5.625 C67.2943,6.14583 67.5313,6.85417 67.5313,7.75 M66.5313,7.45313 C66.5313,6.91146 66.3828,6.47917 66.0859,6.15625 C65.7891,5.83333 65.3958,5.67188 64.9063,5.67188 C64.3542,5.67188 63.9141,5.82813 63.5859,6.14063 C63.2578,6.45313 63.0677,6.89063 63.0156,7.45313 L66.5313,7.45313"/>
</g>

<g fill="none" stroke="#000000" stroke-opacity="1" stroke-width="1" stroke-linecap="square" stroke-linejoin="bevel" transform="matrix(1.99979,0,0,1.99979,523.996,75.9922)"
font-family="sans" font-size="11" font-weight="100" font-style="normal" 
>
</g>

<g fill="none" stroke="#000000" stroke-opacity="1" stroke-width="1" stroke-linecap="square" stroke-linejoin="bevel" transform="matrix(1.99979,0,0,1.99979,523.996,75.9922)"
font-family="Ubuntu" font-size="11" font-weight="400" font-style="normal" 
>
</g>

<g fill="none" stroke="#000000" stroke-opacity="1" stroke-width="1" stroke-linecap="square" stroke-linejoin="bevel" transform="matrix(1.99979,0,0,1.99979,-0.000799918,179.981)"
font-family="Ubuntu" font-size="11" font-weight="400" font-style="normal" 
>
</g>

<g fill="none" stroke="#000000" stroke-opacity="1" stroke-width="1" stroke-linecap="square" stroke-linejoin="bevel" transform="matrix(1.99979,0,0,1.99979,-0.000799918,179.981)"
font-family="Ubuntu" font-size="11" font-weight="400" font-style="normal" 
>
</g>

<g fill="none" stroke="#000000" stroke-opacity="1" stroke-width="1" stroke-linecap="square" stroke-linejoin="bevel" transform="matrix(1.99979,0,0,1.99979,-0.000799918,179.981)"
font-family="Ubuntu" font-size="11" font-weight="400" font-style="normal" 
>
</g>

<g fill="none" stroke="#000000" stroke-opacity="1" stroke-width="1" stroke-linecap="square" stroke-linejoin="round" transform="matrix(1.99979,0,0,1.99979,-0.000799918,179.981)"
font-family="Ubuntu" font-size="11" font-weight="400" font-style="normal" 
>
<rect x="149.692" y="-89.5" width="75.9968" height="35"/>
</g>

<g fill="none" stroke="#000000" stroke-opacity="1" stroke-width="1" stroke-linecap="square" stroke-linejoin="bevel" transform="matrix(1.99979,0,0,1.99979,-0.000799918,179.981)"
font-family="Ubuntu" font-size="11" font-weight="400" font-style="normal" 
>
</g>

<g fill="none" stroke="#000000" stroke-opacity="1" stroke-width="1" stroke-linecap="square" stroke-linejoin="bevel" transform="matrix(1.99979,0,0,1.99979,316.878,21.9977)"
font-family="Ubuntu" font-size="11" font-weight="400" font-style="normal" 
>
</g>

<g fill="none" stroke="#000000" stroke-opacity="1" stroke-width="1" stroke-linecap="square" stroke-linejoin="bevel" transform="matrix(1.99979,0,0,1.99979,316.878,21.9977)"
font-family="sans" font-size="11" font-weight="100" font-style="normal" 
>
</g>

<g fill="#000000" fill-opacity="1" stroke="#000000" stroke-opacity="1" stroke-width="1" stroke-linecap="square" stroke-linejoin="round" transform="matrix(1.99979,0,0,1.99979,316.878,21.9977)"
font-family="sans" font-size="11" font-weight="100" font-style="normal" 
>
<path vector-effect="none" fill-rule="nonzero" d="M2.79688,2.98438 L3.70313,2.98438 L0.90625,12.0156 L0,12.0156 L2.79688,2.98438 M8.57813,7.23438 C8.81771,7.31771 9.04688,7.48698 9.26563,7.74219 C9.48438,7.9974 9.70313,8.35417 9.92188,8.8125 L11.0313,11 L9.85938,11 L8.84375,8.9375 C8.57292,8.40625 8.3125,8.05208 8.0625,7.875 C7.8125,7.69792 7.47396,7.60938 7.04688,7.60938 L5.875,7.60938 L5.875,11 L4.78125,11 L4.78125,2.98438 L7.23438,2.98438 C8.15104,2.98438 8.83333,3.17448 9.28125,3.55469 C9.72917,3.9349 9.95313,4.51563 9.95313,5.29688 C9.95313,5.79688 9.83594,6.21354 9.60156,6.54688 C9.36719,6.88021 9.02604,7.10938 8.57813,7.23438 M5.875,3.875 L5.875,6.71875 L7.23438,6.71875 C7.75521,6.71875 8.14844,6.59896 8.41406,6.35938 C8.67969,6.11979 8.8125,5.76563 8.8125,5.29688 C8.8125,4.82813 8.67969,4.47396 8.41406,4.23438 C8.14844,3.99479 7.75521,3.875 7.23438,3.875 L5.875,3.875 M15.1094,7.96875 C14.3177,7.96875 13.7682,8.0625 13.4609,8.25 C13.1536,8.4375 13,8.75 13,9.1875 C13,9.53125 13.1146,9.80729 13.3438,10.0156 C13.5729,10.224 13.8854,10.3281 14.2813,10.3281 C14.8333,10.3281 15.2734,10.1328 15.6016,9.74219 C15.9297,9.35156 16.0938,8.83854 16.0938,8.20313 L16.0938,7.96875 L15.1094,7.96875 M17.0781,7.5625 L17.0781,11 L16.0938,11 L16.0938,10.0938 C15.875,10.4583 15.5964,10.7266 15.2578,10.8984 C14.9193,11.0703 14.5052,11.1563 14.0156,11.1563 C13.401,11.1563 12.9115,10.9844 12.5469,10.6406 C12.1823,10.2969 12,9.83333 12,9.25 C12,8.57292 12.2266,8.0625 12.6797,7.71875 C13.1328,7.375 13.8125,7.20313 14.7188,7.20313 L16.0938,7.20313 L16.0938,7.10938 C16.0938,6.65104 15.9453,6.29688 15.6484,6.04688 C15.3516,5.79688 14.9323,5.67188 14.3906,5.67188 C14.0469,5.67188 13.7109,5.71354 13.3828,5.79688 C13.0547,5.88021 12.7396,6.00521 12.4375,6.17188 L12.4375,5.26563 C12.8021,5.11979 13.1563,5.01302 13.5,4.94531 C13.8438,4.8776 14.1719,4.84375 14.4844,4.84375 C15.3594,4.84375 16.0104,5.06771 16.4375,5.51563 C16.8646,5.96354 17.0781,6.64583 17.0781,7.5625 M23.0781,5.89063 L23.0781,2.64063 L24.0625,2.64063 L24.0625,11 L23.0781,11 L23.0781,10.0938 C22.8698,10.4583 22.6068,10.7266 22.2891,10.8984 C21.9714,11.0703 21.5885,11.1563 21.1406,11.1563 C20.4219,11.1563 19.8333,10.8672 19.375,10.2891 C18.9167,9.71094 18.6875,8.94792 18.6875,8 C18.6875,7.05208 18.9167,6.28906 19.375,5.71094 C19.8333,5.13281 20.4219,4.84375 21.1406,4.84375 C21.5885,4.84375 21.9714,4.92969 22.2891,5.10156 C22.6068,5.27344 22.8698,5.53646 23.0781,5.89063 M19.7031,8 C19.7031,8.72917 19.8542,9.29948 20.1563,9.71094 C20.4583,10.1224 20.8698,10.3281 21.3906,10.3281 C21.9115,10.3281 22.3229,10.1224 22.625,9.71094 C22.9271,9.29948 23.0781,8.72917 23.0781,8 C23.0781,7.27083 22.9271,6.70052 22.625,6.28906 C22.3229,5.8776 21.9115,5.67188 21.3906,5.67188 C20.8698,5.67188 20.4583,5.8776 20.1563,6.28906 C19.8542,6.70052 19.7031,7.27083 19.7031,8 M28.8125,7.96875 C28.0208,7.96875 27.4714,8.0625 27.1641,8.25 C26.8568,8.4375 26.7031,8.75 26.7031,9.1875 C26.7031,9.53125 26.8177,9.80729 27.0469,10.0156 C27.276,10.224 27.5885,10.3281 27.9844,10.3281 C28.5365,10.3281 28.9766,10.1328 29.3047,9.74219 C29.6328,9.35156 29.7969,8.83854 29.7969,8.20313 L29.7969,7.96875 L28.8125,7.96875 M30.7813,7.5625 L30.7813,11 L29.7969,11 L29.7969,10.0938 C29.5781,10.4583 29.2995,10.7266 28.9609,10.8984 C28.6224,11.0703 28.2083,11.1563 27.7188,11.1563 C27.1042,11.1563 26.6146,10.9844 26.25,10.6406 C25.8854,10.2969 25.7031,9.83333 25.7031,9.25 C25.7031,8.57292 25.9297,8.0625 26.3828,7.71875 C26.8359,7.375 27.5156,7.20313 28.4219,7.20313 L29.7969,7.20313 L29.7969,7.10938 C29.7969,6.65104 29.6484,6.29688 29.3516,6.04688 C29.0547,5.79688 28.6354,5.67188 28.0938,5.67188 C27.75,5.67188 27.4141,5.71354 27.0859,5.79688 C26.7578,5.88021 26.4427,6.00521 26.1406,6.17188 L26.1406,5.26563 C26.5052,5.11979 26.8594,5.01302 27.2031,4.94531 C27.5469,4.8776 27.875,4.84375 28.1875,4.84375 C29.0625,4.84375 29.7135,5.06771 30.1406,5.51563 C30.5677,5.96354 30.7813,6.64583 30.7813,7.5625 M36.2969,5.90625 C36.1927,5.84375 36.0755,5.79688 35.9453,5.76563 C35.8151,5.73438 35.6719,5.71875 35.5156,5.71875 C34.9531,5.71875 34.5234,5.90104 34.2266,6.26563 C33.9297,6.63021 33.7813,7.15104 33.7813,7.82813 L33.7813,11 L32.7813,11 L32.7813,4.98438 L33.7813,4.98438 L33.7813,5.92188 C33.9792,5.55729 34.2448,5.28646 34.5781,5.10938 C34.9115,4.93229 35.3177,4.84375 35.7969,4.84375 C35.8698,4.84375 35.9453,4.84635 36.0234,4.85156 C36.1016,4.85677 36.1927,4.86979 36.2969,4.89063 L36.2969,5.90625 M37.375,2.98438 L39,2.98438 L41.0469,8.4375 L43.0938,2.98438 L44.7188,2.98438 L44.7188,11 L43.6563,11 L43.6563,3.95313 L41.5938,9.45313 L40.5,9.45313 L38.4219,3.95313 L38.4219,11 L37.375,11 L37.375,2.98438 M50.6563,5.15625 L50.6563,6.09375 C50.375,5.94792 50.0833,5.84115 49.7813,5.77344 C49.4792,5.70573 49.1667,5.67188 48.8438,5.67188 C48.3542,5.67188 47.987,5.7474 47.7422,5.89844 C47.4974,6.04948 47.375,6.27083 47.375,6.5625 C47.375,6.79167 47.4635,6.97135 47.6406,7.10156 C47.8177,7.23177 48.1719,7.35938 48.7031,7.48438 L49.0313,7.5625 C49.7396,7.70833 50.2396,7.91927 50.5313,8.19531 C50.8229,8.47135 50.9688,8.85417 50.9688,9.34375 C50.9688,9.89583 50.75,10.3359 50.3125,10.6641 C49.875,10.9922 49.2656,11.1563 48.4844,11.1563 C48.1615,11.1563 47.8255,11.125 47.4766,11.0625 C47.1276,11 46.7604,10.9063 46.375,10.7813 L46.375,9.76563 C46.7396,9.95313 47.099,10.0938 47.4531,10.1875 C47.8073,10.2813 48.1615,10.3281 48.5156,10.3281 C48.974,10.3281 49.3281,10.2474 49.5781,10.0859 C49.8281,9.92448 49.9531,9.70313 49.9531,9.42188 C49.9531,9.15104 49.8646,8.94271 49.6875,8.79688 C49.5104,8.65104 49.1146,8.51563 48.5,8.39063 L48.1563,8.29688 C47.5417,8.17188 47.099,7.97656 46.8281,7.71094 C46.5573,7.44531 46.4219,7.07813 46.4219,6.60938 C46.4219,6.04688 46.6224,5.61198 47.0234,5.30469 C47.4245,4.9974 47.9948,4.84375 48.7344,4.84375 C49.099,4.84375 49.4427,4.86979 49.7656,4.92188 C50.0885,4.97396 50.3854,5.05208 50.6563,5.15625 M56.5,7.92188 C56.5,7.20313 56.3516,6.64844 56.0547,6.25781 C55.7578,5.86719 55.3438,5.67188 54.8125,5.67188 C54.2813,5.67188 53.8672,5.86719 53.5703,6.25781 C53.2734,6.64844 53.125,7.20313 53.125,7.92188 C53.125,8.63021 53.2734,9.18229 53.5703,9.57813 C53.8672,9.97396 54.2813,10.1719 54.8125,10.1719 C55.3438,10.1719 55.7578,9.97396 56.0547,9.57813 C56.3516,9.18229 56.5,8.63021 56.5,7.92188 M57.4844,10.25 C57.4844,11.2813 57.2578,12.0443 56.8047,12.5391 C56.3516,13.0339 55.6563,13.2813 54.7188,13.2813 C54.3646,13.2813 54.0339,13.2552 53.7266,13.2031 C53.4193,13.151 53.1198,13.0729 52.8281,12.9688 L52.8281,12.0156 C53.1198,12.1719 53.4063,12.2865 53.6875,12.3594 C53.9688,12.4323 54.2604,12.4688 54.5625,12.4688 C55.2083,12.4688 55.6927,12.2995 56.0156,11.9609 C56.3385,11.6224 56.5,11.1146 56.5,10.4375 L56.5,9.9375 C56.2917,10.2917 56.0286,10.5573 55.7109,10.7344 C55.3932,10.9115 55.0104,11 54.5625,11 C53.8229,11 53.2292,10.7188 52.7813,10.1563 C52.3333,9.59375 52.1094,8.84896 52.1094,7.92188 C52.1094,6.99479 52.3333,6.25 52.7813,5.6875 C53.2292,5.125 53.8229,4.84375 54.5625,4.84375 C55.0104,4.84375 55.3932,4.92969 55.7109,5.10156 C56.0286,5.27344 56.2917,5.53646 56.5,5.89063 L56.5,4.98438 L57.4844,4.98438 L57.4844,10.25"/>
</g>

<g fill="none" stroke="#000000" stroke-opacity="1" stroke-width="1" stroke-linecap="square" stroke-linejoin="bevel" transform="matrix(1.99979,0,0,1.99979,316.878,21.9977)"
font-family="sans" font-size="11" font-weight="100" font-style="normal" 
>
</g>

<g fill="none" stroke="#000000" stroke-opacity="1" stroke-width="1" stroke-linecap="square" stroke-linejoin="bevel" transform="matrix(1.99979,0,0,1.99979,316.878,21.9977)"
font-family="Ubuntu" font-size="11" font-weight="400" font-style="normal" 
>
</g>

<g fill="none" stroke="#000000" stroke-opacity="1" stroke-width="1" stroke-linecap="square" stroke-linejoin="bevel" transform="matrix(1.99979,0,0,1.99979,-0.000799918,179.981)"
font-family="Ubuntu" font-size="11" font-weight="400" font-style="normal" 
>
</g>

<g fill="none" stroke="#000000" stroke-opacity="1" stroke-width="1" stroke-linecap="square" stroke-linejoin="bevel" transform="matrix(1.99979,0,0,1.99979,-0.000799918,179.981)"
font-family="Ubuntu" font-size="11" font-weight="400" font-style="normal" 
>
</g>

<g fill="none" stroke="#000000" stroke-opacity="1" stroke-width="1" stroke-linecap="square" stroke-linejoin="bevel" transform="matrix(1.99979,0,0,1.99979,-0.000799918,179.981)"
font-family="Ubuntu" font-size="11" font-weight="400" font-style="normal" 
>
</g>

<g fill="none" stroke="#000000" stroke-opacity="1" stroke-width="1" stroke-linecap="square" stroke-linejoin="round" transform="matrix(1.99979,0,0,1.99979,-0.000799918,179.981)"
font-family="Ubuntu" font-size="11" font-weight="400" font-style="normal" 
>
<ellipse cx="513.52" cy="-45" rx="56.0452" ry="17.5"/>
</g>

<g fill="none" stroke="#000000" stroke-opacity="1" stroke-width="1" stroke-linecap="square" stroke-linejoin="bevel" transform="matrix(1.99979,0,0,1.99979,-0.000799918,179.981)"
font-family="Ubuntu" font-size="11" font-weight="400" font-style="normal" 
>
</g>

<g fill="none" stroke="#000000" stroke-opacity="1" stroke-width="1" stroke-linecap="square" stroke-linejoin="bevel" transform="matrix(1.99979,0,0,1.99979,956.378,75.9922)"
font-family="Ubuntu" font-size="11" font-weight="400" font-style="normal" 
>
</g>

<g fill="none" stroke="#000000" stroke-opacity="1" stroke-width="1" stroke-linecap="square" stroke-linejoin="bevel" transform="matrix(1.99979,0,0,1.99979,956.378,75.9922)"
font-family="sans" font-size="11" font-weight="100" font-style="normal" 
>
</g>

<g fill="#000000" fill-opacity="1" stroke="#000000" stroke-opacity="1" stroke-width="1" stroke-linecap="square" stroke-linejoin="round" transform="matrix(1.99979,0,0,1.99979,956.378,75.9922)"
font-family="sans" font-size="11" font-weight="100" font-style="normal" 
>
<path vector-effect="none" fill-rule="nonzero" d="M2.79688,2.98438 L3.70313,2.98438 L0.90625,12.0156 L0,12.0156 L2.79688,2.98438 M8.03125,3.71875 C7.25,3.71875 6.6276,4.01302 6.16406,4.60156 C5.70052,5.1901 5.46875,5.98958 5.46875,7 C5.46875,8.01042 5.70052,8.8099 6.16406,9.39844 C6.6276,9.98698 7.25,10.2813 8.03125,10.2813 C8.82292,10.2813 9.44792,9.98698 9.90625,9.39844 C10.3646,8.8099 10.5938,8.01042 10.5938,7 C10.5938,5.98958 10.3646,5.1901 9.90625,4.60156 C9.44792,4.01302 8.82292,3.71875 8.03125,3.71875 M8.03125,2.82813 C9.15625,2.82813 10.0573,3.20573 10.7344,3.96094 C11.4115,4.71615 11.75,5.72917 11.75,7 C11.75,8.26042 11.4115,9.26823 10.7344,10.0234 C10.0573,10.7786 9.15625,11.1563 8.03125,11.1563 C6.90625,11.1563 6.00781,10.7813 5.33594,10.0313 C4.66406,9.28125 4.32813,8.27083 4.32813,7 C4.32813,5.72917 4.66406,4.71615 5.33594,3.96094 C6.00781,3.20573 6.90625,2.82813 8.03125,2.82813 M13.2969,8.625 L13.2969,4.98438 L14.2813,4.98438 L14.2813,8.59375 C14.2813,9.15625 14.3932,9.58073 14.6172,9.86719 C14.8411,10.1536 15.1719,10.2969 15.6094,10.2969 C16.151,10.2969 16.5755,10.1276 16.8828,9.78906 C17.1901,9.45052 17.3438,8.98438 17.3438,8.39063 L17.3438,4.98438 L18.3281,4.98438 L18.3281,11 L17.3438,11 L17.3438,10.0781 C17.1042,10.4427 16.8255,10.7135 16.5078,10.8906 C16.1901,11.0677 15.8229,11.1563 15.4063,11.1563 C14.7188,11.1563 14.1953,10.9401 13.8359,10.5078 C13.4766,10.0755 13.2969,9.44792 13.2969,8.625 M21.3438,3.28125 L21.3438,4.98438 L23.375,4.98438 L23.375,5.75 L21.3438,5.75 L21.3438,9.01563 C21.3438,9.50521 21.4115,9.82031 21.5469,9.96094 C21.6823,10.1016 21.9531,10.1719 22.3594,10.1719 L23.375,10.1719 L23.375,11 L22.3594,11 C21.599,11 21.0729,10.8568 20.7813,10.5703 C20.4896,10.2839 20.3438,9.76563 20.3438,9.01563 L20.3438,5.75 L19.625,5.75 L19.625,4.98438 L20.3438,4.98438 L20.3438,3.28125 L21.3438,3.28125 M25.6406,10.0938 L25.6406,13.2813 L24.6406,13.2813 L24.6406,4.98438 L25.6406,4.98438 L25.6406,5.89063 C25.8385,5.53646 26.0964,5.27344 26.4141,5.10156 C26.7318,4.92969 27.1146,4.84375 27.5625,4.84375 C28.2917,4.84375 28.8828,5.13281 29.3359,5.71094 C29.7891,6.28906 30.0156,7.05208 30.0156,8 C30.0156,8.94792 29.7891,9.71094 29.3359,10.2891 C28.8828,10.8672 28.2917,11.1563 27.5625,11.1563 C27.1146,11.1563 26.7318,11.0703 26.4141,10.8984 C26.0964,10.7266 25.8385,10.4583 25.6406,10.0938 M29,8 C29,7.27083 28.849,6.70052 28.5469,6.28906 C28.2448,5.8776 27.8333,5.67188 27.3125,5.67188 C26.7917,5.67188 26.3828,5.8776 26.0859,6.28906 C25.7891,6.70052 25.6406,7.27083 25.6406,8 C25.6406,8.72917 25.7891,9.29948 26.0859,9.71094 C26.3828,10.1224 26.7917,10.3281 27.3125,10.3281 C27.8333,10.3281 28.2448,10.1224 28.5469,9.71094 C28.849,9.29948 29,8.72917 29,8 M31.5469,8.625 L31.5469,4.98438 L32.5313,4.98438 L32.5313,8.59375 C32.5313,9.15625 32.6432,9.58073 32.8672,9.86719 C33.0911,10.1536 33.4219,10.2969 33.8594,10.2969 C34.401,10.2969 34.8255,10.1276 35.1328,9.78906 C35.4401,9.45052 35.5938,8.98438 35.5938,8.39063 L35.5938,4.98438 L36.5781,4.98438 L36.5781,11 L35.5938,11 L35.5938,10.0781 C35.3542,10.4427 35.0755,10.7135 34.7578,10.8906 C34.4401,11.0677 34.0729,11.1563 33.6563,11.1563 C32.9688,11.1563 32.4453,10.9401 32.0859,10.5078 C31.7266,10.0755 31.5469,9.44792 31.5469,8.625 M39.5938,3.28125 L39.5938,4.98438 L41.625,4.98438 L41.625,5.75 L39.5938,5.75 L39.5938,9.01563 C39.5938,9.50521 39.6615,9.82031 39.7969,9.96094 C39.9323,10.1016 40.2031,10.1719 40.6094,10.1719 L41.625,10.1719 L41.625,11 L40.6094,11 C39.849,11 39.3229,10.8568 39.0313,10.5703 C38.7396,10.2839 38.5938,9.76563 38.5938,9.01563 L38.5938,5.75 L37.875,5.75 L37.875,4.98438 L38.5938,4.98438 L38.5938,3.28125 L39.5938,3.28125 M42.9688,2.98438 L44.4375,2.98438 L47.9844,9.6875 L47.9844,2.98438 L49.0469,2.98438 L49.0469,11 L47.5781,11 L44.0156,4.29688 L44.0156,11 L42.9688,11 L42.9688,2.98438 M53.4844,5.67188 C52.9531,5.67188 52.5339,5.88021 52.2266,6.29688 C51.9193,6.71354 51.7656,7.28125 51.7656,8 C51.7656,8.71875 51.9167,9.28385 52.2188,9.69531 C52.5208,10.1068 52.9427,10.3125 53.4844,10.3125 C54.0052,10.3125 54.4193,10.1068 54.7266,9.69531 C55.0339,9.28385 55.1875,8.71875 55.1875,8 C55.1875,7.28125 55.0339,6.71354 54.7266,6.29688 C54.4193,5.88021 54.0052,5.67188 53.4844,5.67188 M53.4844,4.84375 C54.3385,4.84375 55.0104,5.1224 55.5,5.67969 C55.9896,6.23698 56.2344,7.01042 56.2344,8 C56.2344,8.97917 55.9896,9.75 55.5,10.3125 C55.0104,10.875 54.3385,11.1563 53.4844,11.1563 C52.6198,11.1563 51.9427,10.875 51.4531,10.3125 C50.9635,9.75 50.7188,8.97917 50.7188,8 C50.7188,7.01042 50.9635,6.23698 51.4531,5.67969 C51.9427,5.1224 52.6198,4.84375 53.4844,4.84375 M61.8281,5.89063 L61.8281,2.64063 L62.8125,2.64063 L62.8125,11 L61.8281,11 L61.8281,10.0938 C61.6198,10.4583 61.3568,10.7266 61.0391,10.8984 C60.7214,11.0703 60.3385,11.1563 59.8906,11.1563 C59.1719,11.1563 58.5833,10.8672 58.125,10.2891 C57.6667,9.71094 57.4375,8.94792 57.4375,8 C57.4375,7.05208 57.6667,6.28906 58.125,5.71094 C58.5833,5.13281 59.1719,4.84375 59.8906,4.84375 C60.3385,4.84375 60.7214,4.92969 61.0391,5.10156 C61.3568,5.27344 61.6198,5.53646 61.8281,5.89063 M58.4531,8 C58.4531,8.72917 58.6042,9.29948 58.9063,9.71094 C59.2083,10.1224 59.6198,10.3281 60.1406,10.3281 C60.6615,10.3281 61.0729,10.1224 61.375,9.71094 C61.6771,9.29948 61.8281,8.72917 61.8281,8 C61.8281,7.27083 61.6771,6.70052 61.375,6.28906 C61.0729,5.8776 60.6615,5.67188 60.1406,5.67188 C59.6198,5.67188 59.2083,5.8776 58.9063,6.28906 C58.6042,6.70052 58.4531,7.27083 58.4531,8 M69.9844,7.75 L69.9844,8.23438 L65.4375,8.23438 C65.4792,8.91146 65.6823,9.42708 66.0469,9.78125 C66.4115,10.1354 66.9219,10.3125 67.5781,10.3125 C67.9635,10.3125 68.3333,10.2656 68.6875,10.1719 C69.0417,10.0781 69.3958,9.94271 69.75,9.76563 L69.75,10.6875 C69.3958,10.8438 69.0313,10.9609 68.6563,11.0391 C68.2813,11.1172 67.9063,11.1563 67.5313,11.1563 C66.5625,11.1563 65.7995,10.8776 65.2422,10.3203 C64.6849,9.76302 64.4063,9.00521 64.4063,8.04688 C64.4063,7.06771 64.6719,6.28906 65.2031,5.71094 C65.7344,5.13281 66.4531,4.84375 67.3594,4.84375 C68.1615,4.84375 68.7995,5.10417 69.2734,5.625 C69.7474,6.14583 69.9844,6.85417 69.9844,7.75 M68.9844,7.45313 C68.9844,6.91146 68.8359,6.47917 68.5391,6.15625 C68.2422,5.83333 67.849,5.67188 67.3594,5.67188 C66.8073,5.67188 66.3672,5.82813 66.0391,6.14063 C65.7109,6.45313 65.5208,6.89063 65.4688,7.45313 L68.9844,7.45313"/>
</g>

<g fill="none" stroke="#000000" stroke-opacity="1" stroke-width="1" stroke-linecap="square" stroke-linejoin="bevel" transform="matrix(1.99979,0,0,1.99979,956.378,75.9922)"
font-family="sans" font-size="11" font-weight="100" font-style="normal" 
>
</g>

<g fill="none" stroke="#000000" stroke-opacity="1" stroke-width="1" stroke-linecap="square" stroke-linejoin="bevel" transform="matrix(1.99979,0,0,1.99979,956.378,75.9922)"
font-family="Ubuntu" font-size="11" font-weight="400" font-style="normal" 
>
</g>

<g fill="none" stroke="#000000" stroke-opacity="1" stroke-width="1" stroke-linecap="square" stroke-linejoin="bevel" transform="matrix(1.99979,0,0,1.99979,-0.000799918,179.981)"
font-family="Ubuntu" font-size="11" font-weight="400" font-style="normal" 
>
</g>

<g fill="none" stroke="#000000" stroke-opacity="1" stroke-width="1" stroke-linecap="square" stroke-linejoin="bevel" transform="matrix(1.99979,0,0,1.99979,-0.000799918,179.981)"
font-family="Ubuntu" font-size="11" font-weight="400" font-style="normal" 
>
</g>

<g fill="none" stroke="#000000" stroke-opacity="1" stroke-width="1" stroke-linecap="square" stroke-linejoin="bevel" transform="matrix(1.99979,0,0,1.99979,-0.000799918,179.981)"
font-family="Ubuntu" font-size="11" font-weight="400" font-style="normal" 
>
</g>

<g fill="none" stroke="#000000" stroke-opacity="1" stroke-width="1" stroke-linecap="square" stroke-linejoin="round" transform="matrix(1.99979,0,0,1.99979,-0.000799918,179.981)"
font-family="Ubuntu" font-size="11" font-weight="400" font-style="normal" 
>
<rect x="584.57" y="-62.5" width="87.9992" height="35"/>
</g>

<g fill="none" stroke="#000000" stroke-opacity="1" stroke-width="1" stroke-linecap="square" stroke-linejoin="bevel" transform="matrix(1.99979,0,0,1.99979,-0.000799918,179.981)"
font-family="Ubuntu" font-size="11" font-weight="400" font-style="normal" 
>
</g>

<g fill="none" stroke="#000000" stroke-opacity="1" stroke-width="1" stroke-linecap="square" stroke-linejoin="bevel" transform="matrix(1.99979,0,0,1.99979,1184.7,75.9922)"
font-family="Ubuntu" font-size="11" font-weight="400" font-style="normal" 
>
</g>

<g fill="none" stroke="#000000" stroke-opacity="1" stroke-width="1" stroke-linecap="square" stroke-linejoin="bevel" transform="matrix(1.99979,0,0,1.99979,1184.7,75.9922)"
font-family="sans" font-size="11" font-weight="100" font-style="normal" 
>
</g>

<g fill="#000000" fill-opacity="1" stroke="#000000" stroke-opacity="1" stroke-width="1" stroke-linecap="square" stroke-linejoin="round" transform="matrix(1.99979,0,0,1.99979,1184.7,75.9922)"
font-family="sans" font-size="11" font-weight="100" font-style="normal" 
>
<path vector-effect="none" fill-rule="nonzero" d="M2.79688,2.98438 L3.70313,2.98438 L0.90625,12.0156 L0,12.0156 L2.79688,2.98438 M4.03125,4.98438 L5.07813,4.98438 L6.95313,10.0313 L8.84375,4.98438 L9.89063,4.98438 L7.625,11 L6.28125,11 L4.03125,4.98438 M11.2344,4.98438 L12.2344,4.98438 L12.2344,11 L11.2344,11 L11.2344,4.98438 M11.2344,2.64063 L12.2344,2.64063 L12.2344,3.89063 L11.2344,3.89063 L11.2344,2.64063 M18.125,5.15625 L18.125,6.09375 C17.8438,5.94792 17.5521,5.84115 17.25,5.77344 C16.9479,5.70573 16.6354,5.67188 16.3125,5.67188 C15.8229,5.67188 15.4557,5.7474 15.2109,5.89844 C14.9661,6.04948 14.8438,6.27083 14.8438,6.5625 C14.8438,6.79167 14.9323,6.97135 15.1094,7.10156 C15.2865,7.23177 15.6406,7.35938 16.1719,7.48438 L16.5,7.5625 C17.2083,7.70833 17.7083,7.91927 18,8.19531 C18.2917,8.47135 18.4375,8.85417 18.4375,9.34375 C18.4375,9.89583 18.2188,10.3359 17.7813,10.6641 C17.3438,10.9922 16.7344,11.1563 15.9531,11.1563 C15.6302,11.1563 15.2943,11.125 14.9453,11.0625 C14.5964,11 14.2292,10.9063 13.8438,10.7813 L13.8438,9.76563 C14.2083,9.95313 14.5677,10.0938 14.9219,10.1875 C15.276,10.2813 15.6302,10.3281 15.9844,10.3281 C16.4427,10.3281 16.7969,10.2474 17.0469,10.0859 C17.2969,9.92448 17.4219,9.70313 17.4219,9.42188 C17.4219,9.15104 17.3333,8.94271 17.1563,8.79688 C16.9792,8.65104 16.5833,8.51563 15.9688,8.39063 L15.625,8.29688 C15.0104,8.17188 14.5677,7.97656 14.2969,7.71094 C14.026,7.44531 13.8906,7.07813 13.8906,6.60938 C13.8906,6.04688 14.0911,5.61198 14.4922,5.30469 C14.8932,4.9974 15.4635,4.84375 16.2031,4.84375 C16.5677,4.84375 16.9115,4.86979 17.2344,4.92188 C17.5573,4.97396 17.8542,5.05208 18.125,5.15625 M19.9063,8.625 L19.9063,4.98438 L20.8906,4.98438 L20.8906,8.59375 C20.8906,9.15625 21.0026,9.58073 21.2266,9.86719 C21.4505,10.1536 21.7813,10.2969 22.2188,10.2969 C22.7604,10.2969 23.1849,10.1276 23.4922,9.78906 C23.7995,9.45052 23.9531,8.98438 23.9531,8.39063 L23.9531,4.98438 L24.9375,4.98438 L24.9375,11 L23.9531,11 L23.9531,10.0781 C23.7135,10.4427 23.4349,10.7135 23.1172,10.8906 C22.7995,11.0677 22.4323,11.1563 22.0156,11.1563 C21.3281,11.1563 20.8047,10.9401 20.4453,10.5078 C20.0859,10.0755 19.9063,9.44792 19.9063,8.625 M29.7031,7.96875 C28.9115,7.96875 28.362,8.0625 28.0547,8.25 C27.7474,8.4375 27.5938,8.75 27.5938,9.1875 C27.5938,9.53125 27.7083,9.80729 27.9375,10.0156 C28.1667,10.224 28.4792,10.3281 28.875,10.3281 C29.4271,10.3281 29.8672,10.1328 30.1953,9.74219 C30.5234,9.35156 30.6875,8.83854 30.6875,8.20313 L30.6875,7.96875 L29.7031,7.96875 M31.6719,7.5625 L31.6719,11 L30.6875,11 L30.6875,10.0938 C30.4688,10.4583 30.1901,10.7266 29.8516,10.8984 C29.513,11.0703 29.099,11.1563 28.6094,11.1563 C27.9948,11.1563 27.5052,10.9844 27.1406,10.6406 C26.776,10.2969 26.5938,9.83333 26.5938,9.25 C26.5938,8.57292 26.8203,8.0625 27.2734,7.71875 C27.7266,7.375 28.4063,7.20313 29.3125,7.20313 L30.6875,7.20313 L30.6875,7.10938 C30.6875,6.65104 30.5391,6.29688 30.2422,6.04688 C29.9453,5.79688 29.526,5.67188 28.9844,5.67188 C28.6406,5.67188 28.3047,5.71354 27.9766,5.79688 C27.6484,5.88021 27.3333,6.00521 27.0313,6.17188 L27.0313,5.26563 C27.3958,5.11979 27.75,5.01302 28.0938,4.94531 C28.4375,4.8776 28.7656,4.84375 29.0781,4.84375 C29.9531,4.84375 30.6042,5.06771 31.0313,5.51563 C31.4583,5.96354 31.6719,6.64583 31.6719,7.5625 M33.7031,2.64063 L34.7031,2.64063 L34.7031,11 L33.7031,11 L33.7031,2.64063 M36.75,4.98438 L37.75,4.98438 L37.75,11 L36.75,11 L36.75,4.98438 M36.75,2.64063 L37.75,2.64063 L37.75,3.89063 L36.75,3.89063 L36.75,2.64063 M39.375,4.98438 L44.0625,4.98438 L44.0625,5.89063 L40.3438,10.2031 L44.0625,10.2031 L44.0625,11 L39.2344,11 L39.2344,10.0938 L42.9531,5.78125 L39.375,5.78125 L39.375,4.98438 M48.2969,7.96875 C47.5052,7.96875 46.9557,8.0625 46.6484,8.25 C46.3411,8.4375 46.1875,8.75 46.1875,9.1875 C46.1875,9.53125 46.3021,9.80729 46.5313,10.0156 C46.7604,10.224 47.0729,10.3281 47.4688,10.3281 C48.0208,10.3281 48.4609,10.1328 48.7891,9.74219 C49.1172,9.35156 49.2813,8.83854 49.2813,8.20313 L49.2813,7.96875 L48.2969,7.96875 M50.2656,7.5625 L50.2656,11 L49.2813,11 L49.2813,10.0938 C49.0625,10.4583 48.7839,10.7266 48.4453,10.8984 C48.1068,11.0703 47.6927,11.1563 47.2031,11.1563 C46.5885,11.1563 46.099,10.9844 45.7344,10.6406 C45.3698,10.2969 45.1875,9.83333 45.1875,9.25 C45.1875,8.57292 45.4141,8.0625 45.8672,7.71875 C46.3203,7.375 47,7.20313 47.9063,7.20313 L49.2813,7.20313 L49.2813,7.10938 C49.2813,6.65104 49.1328,6.29688 48.8359,6.04688 C48.5391,5.79688 48.1198,5.67188 47.5781,5.67188 C47.2344,5.67188 46.8984,5.71354 46.5703,5.79688 C46.2422,5.88021 45.9271,6.00521 45.625,6.17188 L45.625,5.26563 C45.9896,5.11979 46.3438,5.01302 46.6875,4.94531 C47.0313,4.8776 47.3594,4.84375 47.6719,4.84375 C48.5469,4.84375 49.1979,5.06771 49.625,5.51563 C50.0521,5.96354 50.2656,6.64583 50.2656,7.5625 M53.2813,3.28125 L53.2813,4.98438 L55.3125,4.98438 L55.3125,5.75 L53.2813,5.75 L53.2813,9.01563 C53.2813,9.50521 53.349,9.82031 53.4844,9.96094 C53.6198,10.1016 53.8906,10.1719 54.2969,10.1719 L55.3125,10.1719 L55.3125,11 L54.2969,11 C53.5365,11 53.0104,10.8568 52.7188,10.5703 C52.4271,10.2839 52.2813,9.76563 52.2813,9.01563 L52.2813,5.75 L51.5625,5.75 L51.5625,4.98438 L52.2813,4.98438 L52.2813,3.28125 L53.2813,3.28125 M56.6094,4.98438 L57.6094,4.98438 L57.6094,11 L56.6094,11 L56.6094,4.98438 M56.6094,2.64063 L57.6094,2.64063 L57.6094,3.89063 L56.6094,3.89063 L56.6094,2.64063 M62,5.67188 C61.4688,5.67188 61.0495,5.88021 60.7422,6.29688 C60.4349,6.71354 60.2813,7.28125 60.2813,8 C60.2813,8.71875 60.4323,9.28385 60.7344,9.69531 C61.0365,10.1068 61.4583,10.3125 62,10.3125 C62.5208,10.3125 62.9349,10.1068 63.2422,9.69531 C63.5495,9.28385 63.7031,8.71875 63.7031,8 C63.7031,7.28125 63.5495,6.71354 63.2422,6.29688 C62.9349,5.88021 62.5208,5.67188 62,5.67188 M62,4.84375 C62.8542,4.84375 63.526,5.1224 64.0156,5.67969 C64.5052,6.23698 64.75,7.01042 64.75,8 C64.75,8.97917 64.5052,9.75 64.0156,10.3125 C63.526,10.875 62.8542,11.1563 62,11.1563 C61.1354,11.1563 60.4583,10.875 59.9688,10.3125 C59.4792,9.75 59.2344,8.97917 59.2344,8 C59.2344,7.01042 59.4792,6.23698 59.9688,5.67969 C60.4583,5.1224 61.1354,4.84375 62,4.84375 M71.375,7.375 L71.375,11 L70.3906,11 L70.3906,7.40625 C70.3906,6.83333 70.2813,6.40625 70.0625,6.125 C69.8438,5.84375 69.5104,5.70313 69.0625,5.70313 C68.5313,5.70313 68.112,5.8724 67.8047,6.21094 C67.4974,6.54948 67.3438,7.01042 67.3438,7.59375 L67.3438,11 L66.3438,11 L66.3438,4.98438 L67.3438,4.98438 L67.3438,5.92188 C67.5729,5.55729 67.849,5.28646 68.1719,5.10938 C68.4948,4.93229 68.8646,4.84375 69.2813,4.84375 C69.9688,4.84375 70.4896,5.05729 70.8438,5.48438 C71.1979,5.91146 71.375,6.54167 71.375,7.375 "/>
</g>

<g fill="none" stroke="#000000" stroke-opacity="1" stroke-width="1" stroke-linecap="square" stroke-linejoin="bevel" transform="matrix(1.99979,0,0,1.99979,1184.7,75.9922)"
font-family="sans" font-size="11" font-weight="100" font-style="normal" 
>
</g>

<g fill="none" stroke="#000000" stroke-opacity="1" stroke-width="1" stroke-linecap="square" stroke-linejoin="bevel" transform="matrix(1.99979,0,0,1.99979,1184.7,75.9922)"
font-family="Ubuntu" font-size="11" font-weight="400" font-style="normal" 
>
</g>

<g fill="none" stroke="#000000" stroke-opacity="1" stroke-width="1" stroke-linecap="square" stroke-linejoin="bevel" transform="matrix(1.99979,0,0,1.99979,-0.000799918,179.981)"
font-family="Ubuntu" font-size="11" font-weight="400" font-style="normal" 
>
</g>

<g fill="none" stroke="#000000" stroke-opacity="1" stroke-width="1" stroke-linecap="square" stroke-linejoin="bevel" transform="matrix(1.99979,0,0,1.99979,-0.000799918,179.981)"
font-family="Ubuntu" font-size="11" font-weight="400" font-style="normal" 
>
</g>

<g fill="none" stroke="#000000" stroke-opacity="1" stroke-width="1" stroke-linecap="square" stroke-linejoin="bevel" transform="matrix(1.99979,0,0,1.99979,-0.000799918,179.981)"
font-family="Ubuntu" font-size="11" font-weight="400" font-style="normal" 
>
</g>

<g fill="none" stroke="#000000" stroke-opacity="1" stroke-width="1" stroke-linecap="square" stroke-linejoin="round" transform="matrix(1.99979,0,0,1.99979,-0.000799918,179.981)"
font-family="Ubuntu" font-size="11" font-weight="400" font-style="normal" 
>
<rect x="366.482" y="-62.5" width="75.9968" height="35"/>
</g>

<g fill="none" stroke="#000000" stroke-opacity="1" stroke-width="1" stroke-linecap="square" stroke-linejoin="bevel" transform="matrix(1.99979,0,0,1.99979,-0.000799918,179.981)"
font-family="Ubuntu" font-size="11" font-weight="400" font-style="normal" 
>
</g>

<g fill="none" stroke="#000000" stroke-opacity="1" stroke-width="1" stroke-linecap="square" stroke-linejoin="bevel" transform="matrix(1.99979,0,0,1.99979,750.273,75.9922)"
font-family="Ubuntu" font-size="11" font-weight="400" font-style="normal" 
>
</g>

<g fill="none" stroke="#000000" stroke-opacity="1" stroke-width="1" stroke-linecap="square" stroke-linejoin="bevel" transform="matrix(1.99979,0,0,1.99979,750.273,75.9922)"
font-family="sans" font-size="11" font-weight="100" font-style="normal" 
>
</g>

<g fill="#000000" fill-opacity="1" stroke="#000000" stroke-opacity="1" stroke-width="1" stroke-linecap="square" stroke-linejoin="round" transform="matrix(1.99979,0,0,1.99979,750.273,75.9922)"
font-family="sans" font-size="11" font-weight="100" font-style="normal" 
>
<path vector-effect="none" fill-rule="nonzero" d="M2.79688,2.98438 L3.70313,2.98438 L0.90625,12.0156 L0,12.0156 L2.79688,2.98438 M4.78125,2.98438 L9.39063,2.98438 L9.39063,3.89063 L5.875,3.89063 L5.875,6.25 L9.04688,6.25 L9.04688,7.17188 L5.875,7.17188 L5.875,11 L4.78125,11 L4.78125,2.98438 M10.9531,8.625 L10.9531,4.98438 L11.9375,4.98438 L11.9375,8.59375 C11.9375,9.15625 12.0495,9.58073 12.2734,9.86719 C12.4974,10.1536 12.8281,10.2969 13.2656,10.2969 C13.8073,10.2969 14.2318,10.1276 14.5391,9.78906 C14.8464,9.45052 15,8.98438 15,8.39063 L15,4.98438 L15.9844,4.98438 L15.9844,11 L15,11 L15,10.0781 C14.7604,10.4427 14.4818,10.7135 14.1641,10.8906 C13.8464,11.0677 13.4792,11.1563 13.0625,11.1563 C12.375,11.1563 11.8516,10.9401 11.4922,10.5078 C11.1328,10.0755 10.9531,9.44792 10.9531,8.625 M21.8594,5.15625 L21.8594,6.09375 C21.5781,5.94792 21.2865,5.84115 20.9844,5.77344 C20.6823,5.70573 20.3698,5.67188 20.0469,5.67188 C19.5573,5.67188 19.1901,5.7474 18.9453,5.89844 C18.7005,6.04948 18.5781,6.27083 18.5781,6.5625 C18.5781,6.79167 18.6667,6.97135 18.8438,7.10156 C19.0208,7.23177 19.375,7.35938 19.9063,7.48438 L20.2344,7.5625 C20.9427,7.70833 21.4427,7.91927 21.7344,8.19531 C22.026,8.47135 22.1719,8.85417 22.1719,9.34375 C22.1719,9.89583 21.9531,10.3359 21.5156,10.6641 C21.0781,10.9922 20.4688,11.1563 19.6875,11.1563 C19.3646,11.1563 19.0286,11.125 18.6797,11.0625 C18.3307,11 17.9635,10.9063 17.5781,10.7813 L17.5781,9.76563 C17.9427,9.95313 18.3021,10.0938 18.6563,10.1875 C19.0104,10.2813 19.3646,10.3281 19.7188,10.3281 C20.1771,10.3281 20.5313,10.2474 20.7813,10.0859 C21.0313,9.92448 21.1563,9.70313 21.1563,9.42188 C21.1563,9.15104 21.0677,8.94271 20.8906,8.79688 C20.7135,8.65104 20.3177,8.51563 19.7031,8.39063 L19.3594,8.29688 C18.7448,8.17188 18.3021,7.97656 18.0313,7.71094 C17.7604,7.44531 17.625,7.07813 17.625,6.60938 C17.625,6.04688 17.8255,5.61198 18.2266,5.30469 C18.6276,4.9974 19.1979,4.84375 19.9375,4.84375 C20.3021,4.84375 20.6458,4.86979 20.9688,4.92188 C21.2917,4.97396 21.5885,5.05208 21.8594,5.15625 M28.8906,7.75 L28.8906,8.23438 L24.3438,8.23438 C24.3854,8.91146 24.5885,9.42708 24.9531,9.78125 C25.3177,10.1354 25.8281,10.3125 26.4844,10.3125 C26.8698,10.3125 27.2396,10.2656 27.5938,10.1719 C27.9479,10.0781 28.3021,9.94271 28.6563,9.76563 L28.6563,10.6875 C28.3021,10.8438 27.9375,10.9609 27.5625,11.0391 C27.1875,11.1172 26.8125,11.1563 26.4375,11.1563 C25.4688,11.1563 24.7057,10.8776 24.1484,10.3203 C23.5911,9.76302 23.3125,9.00521 23.3125,8.04688 C23.3125,7.06771 23.5781,6.28906 24.1094,5.71094 C24.6406,5.13281 25.3594,4.84375 26.2656,4.84375 C27.0677,4.84375 27.7057,5.10417 28.1797,5.625 C28.6536,6.14583 28.8906,6.85417 28.8906,7.75 M27.8906,7.45313 C27.8906,6.91146 27.7422,6.47917 27.4453,6.15625 C27.1484,5.83333 26.7552,5.67188 26.2656,5.67188 C25.7135,5.67188 25.2734,5.82813 24.9453,6.14063 C24.6172,6.45313 24.4271,6.89063 24.375,7.45313 L27.8906,7.45313 M34.4688,5.89063 L34.4688,2.64063 L35.4531,2.64063 L35.4531,11 L34.4688,11 L34.4688,10.0938 C34.2604,10.4583 33.9974,10.7266 33.6797,10.8984 C33.362,11.0703 32.9792,11.1563 32.5313,11.1563 C31.8125,11.1563 31.224,10.8672 30.7656,10.2891 C30.3073,9.71094 30.0781,8.94792 30.0781,8 C30.0781,7.05208 30.3073,6.28906 30.7656,5.71094 C31.224,5.13281 31.8125,4.84375 32.5313,4.84375 C32.9792,4.84375 33.362,4.92969 33.6797,5.10156 C33.9974,5.27344 34.2604,5.53646 34.4688,5.89063 M31.0938,8 C31.0938,8.72917 31.2448,9.29948 31.5469,9.71094 C31.849,10.1224 32.2604,10.3281 32.7813,10.3281 C33.3021,10.3281 33.7135,10.1224 34.0156,9.71094 C34.3177,9.29948 34.4688,8.72917 34.4688,8 C34.4688,7.27083 34.3177,6.70052 34.0156,6.28906 C33.7135,5.8776 33.3021,5.67188 32.7813,5.67188 C32.2604,5.67188 31.849,5.8776 31.5469,6.28906 C31.2448,6.70052 31.0938,7.27083 31.0938,8 M37.5156,2.98438 L39.1406,2.98438 L41.1875,8.4375 L43.2344,2.98438 L44.8594,2.98438 L44.8594,11 L43.7969,11 L43.7969,3.95313 L41.7344,9.45313 L40.6406,9.45313 L38.5625,3.95313 L38.5625,11 L37.5156,11 L37.5156,2.98438 M50.7969,5.15625 L50.7969,6.09375 C50.5156,5.94792 50.224,5.84115 49.9219,5.77344 C49.6198,5.70573 49.3073,5.67188 48.9844,5.67188 C48.4948,5.67188 48.1276,5.7474 47.8828,5.89844 C47.638,6.04948 47.5156,6.27083 47.5156,6.5625 C47.5156,6.79167 47.6042,6.97135 47.7813,7.10156 C47.9583,7.23177 48.3125,7.35938 48.8438,7.48438 L49.1719,7.5625 C49.8802,7.70833 50.3802,7.91927 50.6719,8.19531 C50.9635,8.47135 51.1094,8.85417 51.1094,9.34375 C51.1094,9.89583 50.8906,10.3359 50.4531,10.6641 C50.0156,10.9922 49.4063,11.1563 48.625,11.1563 C48.3021,11.1563 47.9661,11.125 47.6172,11.0625 C47.2682,11 46.901,10.9063 46.5156,10.7813 L46.5156,9.76563 C46.8802,9.95313 47.2396,10.0938 47.5938,10.1875 C47.9479,10.2813 48.3021,10.3281 48.6563,10.3281 C49.1146,10.3281 49.4688,10.2474 49.7188,10.0859 C49.9688,9.92448 50.0938,9.70313 50.0938,9.42188 C50.0938,9.15104 50.0052,8.94271 49.8281,8.79688 C49.651,8.65104 49.2552,8.51563 48.6406,8.39063 L48.2969,8.29688 C47.6823,8.17188 47.2396,7.97656 46.9688,7.71094 C46.6979,7.44531 46.5625,7.07813 46.5625,6.60938 C46.5625,6.04688 46.763,5.61198 47.1641,5.30469 C47.5651,4.9974 48.1354,4.84375 48.875,4.84375 C49.2396,4.84375 49.5833,4.86979 49.9063,4.92188 C50.2292,4.97396 50.526,5.05208 50.7969,5.15625 M56.6406,7.92188 C56.6406,7.20313 56.4922,6.64844 56.1953,6.25781 C55.8984,5.86719 55.4844,5.67188 54.9531,5.67188 C54.4219,5.67188 54.0078,5.86719 53.7109,6.25781 C53.4141,6.64844 53.2656,7.20313 53.2656,7.92188 C53.2656,8.63021 53.4141,9.18229 53.7109,9.57813 C54.0078,9.97396 54.4219,10.1719 54.9531,10.1719 C55.4844,10.1719 55.8984,9.97396 56.1953,9.57813 C56.4922,9.18229 56.6406,8.63021 56.6406,7.92188 M57.625,10.25 C57.625,11.2813 57.3984,12.0443 56.9453,12.5391 C56.4922,13.0339 55.7969,13.2813 54.8594,13.2813 C54.5052,13.2813 54.1745,13.2552 53.8672,13.2031 C53.5599,13.151 53.2604,13.0729 52.9688,12.9688 L52.9688,12.0156 C53.2604,12.1719 53.5469,12.2865 53.8281,12.3594 C54.1094,12.4323 54.401,12.4688 54.7031,12.4688 C55.349,12.4688 55.8333,12.2995 56.1563,11.9609 C56.4792,11.6224 56.6406,11.1146 56.6406,10.4375 L56.6406,9.9375 C56.4323,10.2917 56.1693,10.5573 55.8516,10.7344 C55.5339,10.9115 55.151,11 54.7031,11 C53.9635,11 53.3698,10.7188 52.9219,10.1563 C52.474,9.59375 52.25,8.84896 52.25,7.92188 C52.25,6.99479 52.474,6.25 52.9219,5.6875 C53.3698,5.125 53.9635,4.84375 54.7031,4.84375 C55.151,4.84375 55.5339,4.92969 55.8516,5.10156 C56.1693,5.27344 56.4323,5.53646 56.6406,5.89063 L56.6406,4.98438 L57.625,4.98438 L57.625,10.25"/>
</g>

<g fill="none" stroke="#000000" stroke-opacity="1" stroke-width="1" stroke-linecap="square" stroke-linejoin="bevel" transform="matrix(1.99979,0,0,1.99979,750.273,75.9922)"
font-family="sans" font-size="11" font-weight="100" font-style="normal" 
>
</g>

<g fill="none" stroke="#000000" stroke-opacity="1" stroke-width="1" stroke-linecap="square" stroke-linejoin="bevel" transform="matrix(1.99979,0,0,1.99979,750.273,75.9922)"
font-family="Ubuntu" font-size="11" font-weight="400" font-style="normal" 
>
</g>

<g fill="none" stroke="#000000" stroke-opacity="1" stroke-width="1" stroke-linecap="square" stroke-linejoin="bevel" transform="matrix(1.99979,0,0,1.99979,-0.000799918,179.981)"
font-family="Ubuntu" font-size="11" font-weight="400" font-style="normal" 
>
</g>

<g fill="none" stroke="#000000" stroke-opacity="1" stroke-width="1" stroke-linecap="square" stroke-linejoin="bevel" transform="matrix(1.99979,0,0,1.99979,-0.000799918,179.981)"
font-family="Ubuntu" font-size="11" font-weight="400" font-style="normal" 
>
</g>

<g fill="none" stroke="#000000" stroke-opacity="1" stroke-width="1" stroke-linecap="square" stroke-linejoin="bevel" transform="matrix(1.99979,0,0,1.99979,-0.000799918,179.981)"
font-family="Ubuntu" font-size="11" font-weight="400" font-style="normal" 
>
</g>

<g fill="none" stroke="#000000" stroke-opacity="1" stroke-width="1" stroke-linecap="square" stroke-linejoin="round" transform="matrix(1.99979,0,0,1.99979,-0.000799918,179.981)"
font-family="Ubuntu" font-size="11" font-weight="400" font-style="normal" 
>
<ellipse cx="67.594" cy="-18" rx="65.1424" ry="17.5"/>
</g>

<g fill="none" stroke="#000000" stroke-opacity="1" stroke-width="1" stroke-linecap="square" stroke-linejoin="bevel" transform="matrix(1.99979,0,0,1.99979,-0.000799918,179.981)"
font-family="Ubuntu" font-size="11" font-weight="400" font-style="normal" 
>
</g>

<g fill="none" stroke="#000000" stroke-opacity="1" stroke-width="1" stroke-linecap="square" stroke-linejoin="bevel" transform="matrix(1.99979,0,0,1.99979,53.463,129.987)"
font-family="Ubuntu" font-size="11" font-weight="400" font-style="normal" 
>
</g>

<g fill="none" stroke="#000000" stroke-opacity="1" stroke-width="1" stroke-linecap="square" stroke-linejoin="bevel" transform="matrix(1.99979,0,0,1.99979,53.463,129.987)"
font-family="sans" font-size="11" font-weight="100" font-style="normal" 
>
</g>

<g fill="#000000" fill-opacity="1" stroke="#000000" stroke-opacity="1" stroke-width="1" stroke-linecap="square" stroke-linejoin="round" transform="matrix(1.99979,0,0,1.99979,53.463,129.987)"
font-family="sans" font-size="11" font-weight="100" font-style="normal" 
>
<path vector-effect="none" fill-rule="nonzero" d="M2.79688,2.98438 L3.70313,2.98438 L0.90625,12.0156 L0,12.0156 L2.79688,2.98438 M4.78125,2.98438 L5.875,2.98438 L5.875,10.0938 L9.76563,10.0938 L9.76563,11 L4.78125,11 L4.78125,2.98438 M10.8594,4.98438 L11.8594,4.98438 L11.8594,11 L10.8594,11 L10.8594,4.98438 M10.8594,2.64063 L11.8594,2.64063 L11.8594,3.89063 L10.8594,3.89063 L10.8594,2.64063 M17.875,5.89063 L17.875,2.64063 L18.8594,2.64063 L18.8594,11 L17.875,11 L17.875,10.0938 C17.6667,10.4583 17.4036,10.7266 17.0859,10.8984 C16.7682,11.0703 16.3854,11.1563 15.9375,11.1563 C15.2188,11.1563 14.6302,10.8672 14.1719,10.2891 C13.7135,9.71094 13.4844,8.94792 13.4844,8 C13.4844,7.05208 13.7135,6.28906 14.1719,5.71094 C14.6302,5.13281 15.2188,4.84375 15.9375,4.84375 C16.3854,4.84375 16.7682,4.92969 17.0859,5.10156 C17.4036,5.27344 17.6667,5.53646 17.875,5.89063 M14.5,8 C14.5,8.72917 14.651,9.29948 14.9531,9.71094 C15.2552,10.1224 15.6667,10.3281 16.1875,10.3281 C16.7083,10.3281 17.1198,10.1224 17.4219,9.71094 C17.724,9.29948 17.875,8.72917 17.875,8 C17.875,7.27083 17.724,6.70052 17.4219,6.28906 C17.1198,5.8776 16.7083,5.67188 16.1875,5.67188 C15.6667,5.67188 15.2552,5.8776 14.9531,6.28906 C14.651,6.70052 14.5,7.27083 14.5,8 M23.6094,7.96875 C22.8177,7.96875 22.2682,8.0625 21.9609,8.25 C21.6536,8.4375 21.5,8.75 21.5,9.1875 C21.5,9.53125 21.6146,9.80729 21.8438,10.0156 C22.0729,10.224 22.3854,10.3281 22.7813,10.3281 C23.3333,10.3281 23.7734,10.1328 24.1016,9.74219 C24.4297,9.35156 24.5938,8.83854 24.5938,8.20313 L24.5938,7.96875 L23.6094,7.96875 M25.5781,7.5625 L25.5781,11 L24.5938,11 L24.5938,10.0938 C24.375,10.4583 24.0964,10.7266 23.7578,10.8984 C23.4193,11.0703 23.0052,11.1563 22.5156,11.1563 C21.901,11.1563 21.4115,10.9844 21.0469,10.6406 C20.6823,10.2969 20.5,9.83333 20.5,9.25 C20.5,8.57292 20.7266,8.0625 21.1797,7.71875 C21.6328,7.375 22.3125,7.20313 23.2188,7.20313 L24.5938,7.20313 L24.5938,7.10938 C24.5938,6.65104 24.4453,6.29688 24.1484,6.04688 C23.8516,5.79688 23.4323,5.67188 22.8906,5.67188 C22.5469,5.67188 22.2109,5.71354 21.8828,5.79688 C21.5547,5.88021 21.2396,6.00521 20.9375,6.17188 L20.9375,5.26563 C21.3021,5.11979 21.6563,5.01302 22,4.94531 C22.3438,4.8776 22.6719,4.84375 22.9844,4.84375 C23.8594,4.84375 24.5104,5.06771 24.9375,5.51563 C25.3646,5.96354 25.5781,6.64583 25.5781,7.5625 M31.0938,5.90625 C30.9896,5.84375 30.8724,5.79688 30.7422,5.76563 C30.612,5.73438 30.4688,5.71875 30.3125,5.71875 C29.75,5.71875 29.3203,5.90104 29.0234,6.26563 C28.7266,6.63021 28.5781,7.15104 28.5781,7.82813 L28.5781,11 L27.5781,11 L27.5781,4.98438 L28.5781,4.98438 L28.5781,5.92188 C28.776,5.55729 29.0417,5.28646 29.375,5.10938 C29.7083,4.93229 30.1146,4.84375 30.5938,4.84375 C30.6667,4.84375 30.7422,4.84635 30.8203,4.85156 C30.8984,4.85677 30.9896,4.86979 31.0938,4.89063 L31.0938,5.90625 M33.2656,3.875 L33.2656,6.89063 L34.625,6.89063 C35.125,6.89063 35.513,6.75781 35.7891,6.49219 C36.0651,6.22656 36.2031,5.85417 36.2031,5.375 C36.2031,4.89583 36.0651,4.52604 35.7891,4.26563 C35.513,4.00521 35.125,3.875 34.625,3.875 L33.2656,3.875 M32.1719,2.98438 L34.625,2.98438 C35.5208,2.98438 36.1979,3.1875 36.6563,3.59375 C37.1146,4 37.3438,4.59375 37.3438,5.375 C37.3438,6.16667 37.1146,6.76563 36.6563,7.17188 C36.1979,7.57813 35.5208,7.78125 34.625,7.78125 L33.2656,7.78125 L33.2656,11 L32.1719,11 L32.1719,2.98438 M38.6563,8.625 L38.6563,4.98438 L39.6406,4.98438 L39.6406,8.59375 C39.6406,9.15625 39.7526,9.58073 39.9766,9.86719 C40.2005,10.1536 40.5313,10.2969 40.9688,10.2969 C41.5104,10.2969 41.9349,10.1276 42.2422,9.78906 C42.5495,9.45052 42.7031,8.98438 42.7031,8.39063 L42.7031,4.98438 L43.6875,4.98438 L43.6875,11 L42.7031,11 L42.7031,10.0781 C42.4635,10.4427 42.1849,10.7135 41.8672,10.8906 C41.5495,11.0677 41.1823,11.1563 40.7656,11.1563 C40.0781,11.1563 39.5547,10.9401 39.1953,10.5078 C38.8359,10.0755 38.6563,9.44792 38.6563,8.625 M50.0469,8 C50.0469,7.27083 49.8958,6.70052 49.5938,6.28906 C49.2917,5.8776 48.8802,5.67188 48.3594,5.67188 C47.8385,5.67188 47.4297,5.8776 47.1328,6.28906 C46.8359,6.70052 46.6875,7.27083 46.6875,8 C46.6875,8.72917 46.8359,9.29948 47.1328,9.71094 C47.4297,10.1224 47.8385,10.3281 48.3594,10.3281 C48.8802,10.3281 49.2917,10.1224 49.5938,9.71094 C49.8958,9.29948 50.0469,8.72917 50.0469,8 M46.6875,5.89063 C46.8854,5.53646 47.1432,5.27344 47.4609,5.10156 C47.7786,4.92969 48.1615,4.84375 48.6094,4.84375 C49.3385,4.84375 49.9297,5.13281 50.3828,5.71094 C50.8359,6.28906 51.0625,7.05208 51.0625,8 C51.0625,8.94792 50.8359,9.71094 50.3828,10.2891 C49.9297,10.8672 49.3385,11.1563 48.6094,11.1563 C48.1615,11.1563 47.7786,11.0703 47.4609,10.8984 C47.1432,10.7266 46.8854,10.4583 46.6875,10.0938 L46.6875,11 L45.6875,11 L45.6875,2.64063 L46.6875,2.64063 L46.6875,5.89063 M52.6875,2.64063 L53.6875,2.64063 L53.6875,11 L52.6875,11 L52.6875,2.64063 M55.7344,4.98438 L56.7344,4.98438 L56.7344,11 L55.7344,11 L55.7344,4.98438 M55.7344,2.64063 L56.7344,2.64063 L56.7344,3.89063 L55.7344,3.89063 L55.7344,2.64063 M62.625,5.15625 L62.625,6.09375 C62.3438,5.94792 62.0521,5.84115 61.75,5.77344 C61.4479,5.70573 61.1354,5.67188 60.8125,5.67188 C60.3229,5.67188 59.9557,5.7474 59.7109,5.89844 C59.4661,6.04948 59.3438,6.27083 59.3438,6.5625 C59.3438,6.79167 59.4323,6.97135 59.6094,7.10156 C59.7865,7.23177 60.1406,7.35938 60.6719,7.48438 L61,7.5625 C61.7083,7.70833 62.2083,7.91927 62.5,8.19531 C62.7917,8.47135 62.9375,8.85417 62.9375,9.34375 C62.9375,9.89583 62.7188,10.3359 62.2813,10.6641 C61.8438,10.9922 61.2344,11.1563 60.4531,11.1563 C60.1302,11.1563 59.7943,11.125 59.4453,11.0625 C59.0964,11 58.7292,10.9063 58.3438,10.7813 L58.3438,9.76563 C58.7083,9.95313 59.0677,10.0938 59.4219,10.1875 C59.776,10.2813 60.1302,10.3281 60.4844,10.3281 C60.9427,10.3281 61.2969,10.2474 61.5469,10.0859 C61.7969,9.92448 61.9219,9.70313 61.9219,9.42188 C61.9219,9.15104 61.8333,8.94271 61.6563,8.79688 C61.4792,8.65104 61.0833,8.51563 60.4688,8.39063 L60.125,8.29688 C59.5104,8.17188 59.0677,7.97656 58.7969,7.71094 C58.526,7.44531 58.3906,7.07813 58.3906,6.60938 C58.3906,6.04688 58.5911,5.61198 58.9922,5.30469 C59.3932,4.9974 59.9635,4.84375 60.7031,4.84375 C61.0677,4.84375 61.4115,4.86979 61.7344,4.92188 C62.0573,4.97396 62.3542,5.05208 62.625,5.15625 M69.5,7.375 L69.5,11 L68.5156,11 L68.5156,7.40625 C68.5156,6.83333 68.4063,6.40625 68.1875,6.125 C67.9688,5.84375 67.6354,5.70313 67.1875,5.70313 C66.6563,5.70313 66.237,5.8724 65.9297,6.21094 C65.6224,6.54948 65.4688,7.01042 65.4688,7.59375 L65.4688,11 L64.4688,11 L64.4688,2.64063 L65.4688,2.64063 L65.4688,5.92188 C65.6979,5.55729 65.974,5.28646 66.2969,5.10938 C66.6198,4.93229 66.9896,4.84375 67.4063,4.84375 C68.0938,4.84375 68.6146,5.05729 68.9688,5.48438 C69.3229,5.91146 69.5,6.54167 69.5,7.375 M76.625,7.75 L76.625,8.23438 L72.0781,8.23438 C72.1198,8.91146 72.3229,9.42708 72.6875,9.78125 C73.0521,10.1354 73.5625,10.3125 74.2188,10.3125 C74.6042,10.3125 74.974,10.2656 75.3281,10.1719 C75.6823,10.0781 76.0365,9.94271 76.3906,9.76563 L76.3906,10.6875 C76.0365,10.8438 75.6719,10.9609 75.2969,11.0391 C74.9219,11.1172 74.5469,11.1563 74.1719,11.1563 C73.2031,11.1563 72.4401,10.8776 71.8828,10.3203 C71.3255,9.76302 71.0469,9.00521 71.0469,8.04688 C71.0469,7.06771 71.3125,6.28906 71.8438,5.71094 C72.375,5.13281 73.0938,4.84375 74,4.84375 C74.8021,4.84375 75.4401,5.10417 75.9141,5.625 C76.388,6.14583 76.625,6.85417 76.625,7.75 M75.625,7.45313 C75.625,6.91146 75.4766,6.47917 75.1797,6.15625 C74.8828,5.83333 74.4896,5.67188 74,5.67188 C73.4479,5.67188 73.0078,5.82813 72.6797,6.14063 C72.3516,6.45313 72.1615,6.89063 72.1094,7.45313 L75.625,7.45313 M81.7188,5.90625 C81.6146,5.84375 81.4974,5.79688 81.3672,5.76563 C81.237,5.73438 81.0938,5.71875 80.9375,5.71875 C80.375,5.71875 79.9453,5.90104 79.6484,6.26563 C79.3516,6.63021 79.2031,7.15104 79.2031,7.82813 L79.2031,11 L78.2031,11 L78.2031,4.98438 L79.2031,4.98438 L79.2031,5.92188 C79.401,5.55729 79.6667,5.28646 80,5.10938 C80.3333,4.93229 80.7396,4.84375 81.2188,4.84375 C81.2917,4.84375 81.3672,4.84635 81.4453,4.85156 C81.5234,4.85677 81.6146,4.86979 81.7188,4.89063 L81.7188,5.90625"/>
</g>

<g fill="none" stroke="#000000" stroke-opacity="1" stroke-width="1" stroke-linecap="square" stroke-linejoin="bevel" transform="matrix(1.99979,0,0,1.99979,53.463,129.987)"
font-family="sans" font-size="11" font-weight="100" font-style="normal" 
>
</g>

<g fill="none" stroke="#000000" stroke-opacity="1" stroke-width="1" stroke-linecap="square" stroke-linejoin="bevel" transform="matrix(1.99979,0,0,1.99979,53.463,129.987)"
font-family="Ubuntu" font-size="11" font-weight="400" font-style="normal" 
>
</g>

<g fill="none" stroke="#000000" stroke-opacity="1" stroke-width="1" stroke-linecap="square" stroke-linejoin="bevel" transform="matrix(1.99979,0,0,1.99979,-0.000799918,179.981)"
font-family="Ubuntu" font-size="11" font-weight="400" font-style="normal" 
>
</g>

<g fill="none" stroke="#000000" stroke-opacity="1" stroke-width="1" stroke-linecap="square" stroke-linejoin="bevel" transform="matrix(1.99979,0,0,1.99979,-0.000799918,179.981)"
font-family="Ubuntu" font-size="11" font-weight="400" font-style="normal" 
>
</g>

<g fill="none" stroke="#000000" stroke-opacity="1" stroke-width="1" stroke-linecap="square" stroke-linejoin="bevel" transform="matrix(1.99979,0,0,1.99979,-0.000799918,179.981)"
font-family="Ubuntu" font-size="11" font-weight="400" font-style="normal" 
>
</g>

<g fill="none" stroke="#000000" stroke-opacity="1" stroke-width="1" stroke-linecap="square" stroke-linejoin="round" transform="matrix(1.99979,0,0,1.99979,-0.000799918,179.981)"
font-family="Ubuntu" font-size="11" font-weight="400" font-style="normal" 
>
<rect x="151.189" y="-35.5" width="73.0016" height="35"/>
</g>

<g fill="none" stroke="#000000" stroke-opacity="1" stroke-width="1" stroke-linecap="square" stroke-linejoin="bevel" transform="matrix(1.99979,0,0,1.99979,-0.000799918,179.981)"
font-family="Ubuntu" font-size="11" font-weight="400" font-style="normal" 
>
</g>

<g fill="none" stroke="#000000" stroke-opacity="1" stroke-width="1" stroke-linecap="square" stroke-linejoin="bevel" transform="matrix(1.99979,0,0,1.99979,322.08,129.987)"
font-family="Ubuntu" font-size="11" font-weight="400" font-style="normal" 
>
</g>

<g fill="none" stroke="#000000" stroke-opacity="1" stroke-width="1" stroke-linecap="square" stroke-linejoin="bevel" transform="matrix(1.99979,0,0,1.99979,322.08,129.987)"
font-family="sans" font-size="11" font-weight="100" font-style="normal" 
>
</g>

<g fill="#000000" fill-opacity="1" stroke="#000000" stroke-opacity="1" stroke-width="1" stroke-linecap="square" stroke-linejoin="round" transform="matrix(1.99979,0,0,1.99979,322.08,129.987)"
font-family="sans" font-size="11" font-weight="100" font-style="normal" 
>
<path vector-effect="none" fill-rule="nonzero" d="M2.79688,2.98438 L3.70313,2.98438 L0.90625,12.0156 L0,12.0156 L2.79688,2.98438 M4.78125,2.98438 L5.875,2.98438 L5.875,10.0938 L9.76563,10.0938 L9.76563,11 L4.78125,11 L4.78125,2.98438 M10.8594,4.98438 L11.8594,4.98438 L11.8594,11 L10.8594,11 L10.8594,4.98438 M10.8594,2.64063 L11.8594,2.64063 L11.8594,3.89063 L10.8594,3.89063 L10.8594,2.64063 M17.875,5.89063 L17.875,2.64063 L18.8594,2.64063 L18.8594,11 L17.875,11 L17.875,10.0938 C17.6667,10.4583 17.4036,10.7266 17.0859,10.8984 C16.7682,11.0703 16.3854,11.1563 15.9375,11.1563 C15.2188,11.1563 14.6302,10.8672 14.1719,10.2891 C13.7135,9.71094 13.4844,8.94792 13.4844,8 C13.4844,7.05208 13.7135,6.28906 14.1719,5.71094 C14.6302,5.13281 15.2188,4.84375 15.9375,4.84375 C16.3854,4.84375 16.7682,4.92969 17.0859,5.10156 C17.4036,5.27344 17.6667,5.53646 17.875,5.89063 M14.5,8 C14.5,8.72917 14.651,9.29948 14.9531,9.71094 C15.2552,10.1224 15.6667,10.3281 16.1875,10.3281 C16.7083,10.3281 17.1198,10.1224 17.4219,9.71094 C17.724,9.29948 17.875,8.72917 17.875,8 C17.875,7.27083 17.724,6.70052 17.4219,6.28906 C17.1198,5.8776 16.7083,5.67188 16.1875,5.67188 C15.6667,5.67188 15.2552,5.8776 14.9531,6.28906 C14.651,6.70052 14.5,7.27083 14.5,8 M23.6094,7.96875 C22.8177,7.96875 22.2682,8.0625 21.9609,8.25 C21.6536,8.4375 21.5,8.75 21.5,9.1875 C21.5,9.53125 21.6146,9.80729 21.8438,10.0156 C22.0729,10.224 22.3854,10.3281 22.7813,10.3281 C23.3333,10.3281 23.7734,10.1328 24.1016,9.74219 C24.4297,9.35156 24.5938,8.83854 24.5938,8.20313 L24.5938,7.96875 L23.6094,7.96875 M25.5781,7.5625 L25.5781,11 L24.5938,11 L24.5938,10.0938 C24.375,10.4583 24.0964,10.7266 23.7578,10.8984 C23.4193,11.0703 23.0052,11.1563 22.5156,11.1563 C21.901,11.1563 21.4115,10.9844 21.0469,10.6406 C20.6823,10.2969 20.5,9.83333 20.5,9.25 C20.5,8.57292 20.7266,8.0625 21.1797,7.71875 C21.6328,7.375 22.3125,7.20313 23.2188,7.20313 L24.5938,7.20313 L24.5938,7.10938 C24.5938,6.65104 24.4453,6.29688 24.1484,6.04688 C23.8516,5.79688 23.4323,5.67188 22.8906,5.67188 C22.5469,5.67188 22.2109,5.71354 21.8828,5.79688 C21.5547,5.88021 21.2396,6.00521 20.9375,6.17188 L20.9375,5.26563 C21.3021,5.11979 21.6563,5.01302 22,4.94531 C22.3438,4.8776 22.6719,4.84375 22.9844,4.84375 C23.8594,4.84375 24.5104,5.06771 24.9375,5.51563 C25.3646,5.96354 25.5781,6.64583 25.5781,7.5625 M31.0938,5.90625 C30.9896,5.84375 30.8724,5.79688 30.7422,5.76563 C30.612,5.73438 30.4688,5.71875 30.3125,5.71875 C29.75,5.71875 29.3203,5.90104 29.0234,6.26563 C28.7266,6.63021 28.5781,7.15104 28.5781,7.82813 L28.5781,11 L27.5781,11 L27.5781,4.98438 L28.5781,4.98438 L28.5781,5.92188 C28.776,5.55729 29.0417,5.28646 29.375,5.10938 C29.7083,4.93229 30.1146,4.84375 30.5938,4.84375 C30.6667,4.84375 30.7422,4.84635 30.8203,4.85156 C30.8984,4.85677 30.9896,4.86979 31.0938,4.89063 L31.0938,5.90625 M32.1719,2.98438 L33.7969,2.98438 L35.8438,8.4375 L37.8906,2.98438 L39.5156,2.98438 L39.5156,11 L38.4531,11 L38.4531,3.95313 L36.3906,9.45313 L35.2969,9.45313 L33.2188,3.95313 L33.2188,11 L32.1719,11 L32.1719,2.98438 M45.4531,5.15625 L45.4531,6.09375 C45.1719,5.94792 44.8802,5.84115 44.5781,5.77344 C44.276,5.70573 43.9635,5.67188 43.6406,5.67188 C43.151,5.67188 42.7839,5.7474 42.5391,5.89844 C42.2943,6.04948 42.1719,6.27083 42.1719,6.5625 C42.1719,6.79167 42.2604,6.97135 42.4375,7.10156 C42.6146,7.23177 42.9688,7.35938 43.5,7.48438 L43.8281,7.5625 C44.5365,7.70833 45.0365,7.91927 45.3281,8.19531 C45.6198,8.47135 45.7656,8.85417 45.7656,9.34375 C45.7656,9.89583 45.5469,10.3359 45.1094,10.6641 C44.6719,10.9922 44.0625,11.1563 43.2813,11.1563 C42.9583,11.1563 42.6224,11.125 42.2734,11.0625 C41.9245,11 41.5573,10.9063 41.1719,10.7813 L41.1719,9.76563 C41.5365,9.95313 41.8958,10.0938 42.25,10.1875 C42.6042,10.2813 42.9583,10.3281 43.3125,10.3281 C43.7708,10.3281 44.125,10.2474 44.375,10.0859 C44.625,9.92448 44.75,9.70313 44.75,9.42188 C44.75,9.15104 44.6615,8.94271 44.4844,8.79688 C44.3073,8.65104 43.9115,8.51563 43.2969,8.39063 L42.9531,8.29688 C42.3385,8.17188 41.8958,7.97656 41.625,7.71094 C41.3542,7.44531 41.2188,7.07813 41.2188,6.60938 C41.2188,6.04688 41.4193,5.61198 41.8203,5.30469 C42.2214,4.9974 42.7917,4.84375 43.5313,4.84375 C43.8958,4.84375 44.2396,4.86979 44.5625,4.92188 C44.8854,4.97396 45.1823,5.05208 45.4531,5.15625 M51.2969,7.92188 C51.2969,7.20313 51.1484,6.64844 50.8516,6.25781 C50.5547,5.86719 50.1406,5.67188 49.6094,5.67188 C49.0781,5.67188 48.6641,5.86719 48.3672,6.25781 C48.0703,6.64844 47.9219,7.20313 47.9219,7.92188 C47.9219,8.63021 48.0703,9.18229 48.3672,9.57813 C48.6641,9.97396 49.0781,10.1719 49.6094,10.1719 C50.1406,10.1719 50.5547,9.97396 50.8516,9.57813 C51.1484,9.18229 51.2969,8.63021 51.2969,7.92188 M52.2813,10.25 C52.2813,11.2813 52.0547,12.0443 51.6016,12.5391 C51.1484,13.0339 50.4531,13.2813 49.5156,13.2813 C49.1615,13.2813 48.8307,13.2552 48.5234,13.2031 C48.2161,13.151 47.9167,13.0729 47.625,12.9688 L47.625,12.0156 C47.9167,12.1719 48.2031,12.2865 48.4844,12.3594 C48.7656,12.4323 49.0573,12.4688 49.3594,12.4688 C50.0052,12.4688 50.4896,12.2995 50.8125,11.9609 C51.1354,11.6224 51.2969,11.1146 51.2969,10.4375 L51.2969,9.9375 C51.0885,10.2917 50.8255,10.5573 50.5078,10.7344 C50.1901,10.9115 49.8073,11 49.3594,11 C48.6198,11 48.026,10.7188 47.5781,10.1563 C47.1302,9.59375 46.9063,8.84896 46.9063,7.92188 C46.9063,6.99479 47.1302,6.25 47.5781,5.6875 C48.026,5.125 48.6198,4.84375 49.3594,4.84375 C49.8073,4.84375 50.1901,4.92969 50.5078,5.10156 C50.8255,5.27344 51.0885,5.53646 51.2969,5.89063 L51.2969,4.98438 L52.2813,4.98438 L52.2813,10.25"/>
</g>

<g fill="none" stroke="#000000" stroke-opacity="1" stroke-width="1" stroke-linecap="square" stroke-linejoin="bevel" transform="matrix(1.99979,0,0,1.99979,322.08,129.987)"
font-family="sans" font-size="11" font-weight="100" font-style="normal" 
>
</g>

<g fill="none" stroke="#000000" stroke-opacity="1" stroke-width="1" stroke-linecap="square" stroke-linejoin="bevel" transform="matrix(1.99979,0,0,1.99979,322.08,129.987)"
font-family="Ubuntu" font-size="11" font-weight="400" font-style="normal" 
>
</g>

<g fill="none" stroke="#000000" stroke-opacity="1" stroke-width="1" stroke-linecap="square" stroke-linejoin="bevel" transform="matrix(1.99979,0,0,1.99979,-0.000799918,179.981)"
font-family="Ubuntu" font-size="11" font-weight="400" font-style="normal" 
>
</g>

<g fill="none" stroke="#000000" stroke-opacity="1" stroke-width="1" stroke-linecap="square" stroke-linejoin="bevel" transform="matrix(1.99979,0,0,1.99979,-0.000799918,179.981)"
font-family="Ubuntu" font-size="11" font-weight="400" font-style="normal" 
>
</g>

<g fill="none" stroke="#000000" stroke-opacity="1" stroke-width="1" stroke-linecap="square" stroke-linejoin="bevel" transform="matrix(1.99979,0,0,1.99979,-0.000799918,179.981)"
font-family="Ubuntu" font-size="11" font-weight="400" font-style="normal" 
>
</g>

<g fill="none" stroke="#000000" stroke-opacity="1" stroke-width="1" stroke-linecap="square" stroke-linejoin="round" transform="matrix(1.99979,0,0,1.99979,-0.000799918,179.981)"
font-family="Ubuntu" font-size="11" font-weight="400" font-style="normal" 
>
<ellipse cx="67.594" cy="-72" rx="67.0936" ry="17.5"/>
</g>

<g fill="none" stroke="#000000" stroke-opacity="1" stroke-width="1" stroke-linecap="square" stroke-linejoin="bevel" transform="matrix(1.99979,0,0,1.99979,-0.000799918,179.981)"
font-family="Ubuntu" font-size="11" font-weight="400" font-style="normal" 
>
</g>

<g fill="none" stroke="#000000" stroke-opacity="1" stroke-width="1" stroke-linecap="square" stroke-linejoin="bevel" transform="matrix(1.99979,0,0,1.99979,48.2604,21.9977)"
font-family="Ubuntu" font-size="11" font-weight="400" font-style="normal" 
>
</g>

<g fill="none" stroke="#000000" stroke-opacity="1" stroke-width="1" stroke-linecap="square" stroke-linejoin="bevel" transform="matrix(1.99979,0,0,1.99979,48.2604,21.9977)"
font-family="sans" font-size="11" font-weight="100" font-style="normal" 
>
</g>

<g fill="#000000" fill-opacity="1" stroke="#000000" stroke-opacity="1" stroke-width="1" stroke-linecap="square" stroke-linejoin="round" transform="matrix(1.99979,0,0,1.99979,48.2604,21.9977)"
font-family="sans" font-size="11" font-weight="100" font-style="normal" 
>
<path vector-effect="none" fill-rule="nonzero" d="M2.79688,2.98438 L3.70313,2.98438 L0.90625,12.0156 L0,12.0156 L2.79688,2.98438 M8.57813,7.23438 C8.81771,7.31771 9.04688,7.48698 9.26563,7.74219 C9.48438,7.9974 9.70313,8.35417 9.92188,8.8125 L11.0313,11 L9.85938,11 L8.84375,8.9375 C8.57292,8.40625 8.3125,8.05208 8.0625,7.875 C7.8125,7.69792 7.47396,7.60938 7.04688,7.60938 L5.875,7.60938 L5.875,11 L4.78125,11 L4.78125,2.98438 L7.23438,2.98438 C8.15104,2.98438 8.83333,3.17448 9.28125,3.55469 C9.72917,3.9349 9.95313,4.51563 9.95313,5.29688 C9.95313,5.79688 9.83594,6.21354 9.60156,6.54688 C9.36719,6.88021 9.02604,7.10938 8.57813,7.23438 M5.875,3.875 L5.875,6.71875 L7.23438,6.71875 C7.75521,6.71875 8.14844,6.59896 8.41406,6.35938 C8.67969,6.11979 8.8125,5.76563 8.8125,5.29688 C8.8125,4.82813 8.67969,4.47396 8.41406,4.23438 C8.14844,3.99479 7.75521,3.875 7.23438,3.875 L5.875,3.875 M15.1094,7.96875 C14.3177,7.96875 13.7682,8.0625 13.4609,8.25 C13.1536,8.4375 13,8.75 13,9.1875 C13,9.53125 13.1146,9.80729 13.3438,10.0156 C13.5729,10.224 13.8854,10.3281 14.2813,10.3281 C14.8333,10.3281 15.2734,10.1328 15.6016,9.74219 C15.9297,9.35156 16.0938,8.83854 16.0938,8.20313 L16.0938,7.96875 L15.1094,7.96875 M17.0781,7.5625 L17.0781,11 L16.0938,11 L16.0938,10.0938 C15.875,10.4583 15.5964,10.7266 15.2578,10.8984 C14.9193,11.0703 14.5052,11.1563 14.0156,11.1563 C13.401,11.1563 12.9115,10.9844 12.5469,10.6406 C12.1823,10.2969 12,9.83333 12,9.25 C12,8.57292 12.2266,8.0625 12.6797,7.71875 C13.1328,7.375 13.8125,7.20313 14.7188,7.20313 L16.0938,7.20313 L16.0938,7.10938 C16.0938,6.65104 15.9453,6.29688 15.6484,6.04688 C15.3516,5.79688 14.9323,5.67188 14.3906,5.67188 C14.0469,5.67188 13.7109,5.71354 13.3828,5.79688 C13.0547,5.88021 12.7396,6.00521 12.4375,6.17188 L12.4375,5.26563 C12.8021,5.11979 13.1563,5.01302 13.5,4.94531 C13.8438,4.8776 14.1719,4.84375 14.4844,4.84375 C15.3594,4.84375 16.0104,5.06771 16.4375,5.51563 C16.8646,5.96354 17.0781,6.64583 17.0781,7.5625 M23.0781,5.89063 L23.0781,2.64063 L24.0625,2.64063 L24.0625,11 L23.0781,11 L23.0781,10.0938 C22.8698,10.4583 22.6068,10.7266 22.2891,10.8984 C21.9714,11.0703 21.5885,11.1563 21.1406,11.1563 C20.4219,11.1563 19.8333,10.8672 19.375,10.2891 C18.9167,9.71094 18.6875,8.94792 18.6875,8 C18.6875,7.05208 18.9167,6.28906 19.375,5.71094 C19.8333,5.13281 20.4219,4.84375 21.1406,4.84375 C21.5885,4.84375 21.9714,4.92969 22.2891,5.10156 C22.6068,5.27344 22.8698,5.53646 23.0781,5.89063 M19.7031,8 C19.7031,8.72917 19.8542,9.29948 20.1563,9.71094 C20.4583,10.1224 20.8698,10.3281 21.3906,10.3281 C21.9115,10.3281 22.3229,10.1224 22.625,9.71094 C22.9271,9.29948 23.0781,8.72917 23.0781,8 C23.0781,7.27083 22.9271,6.70052 22.625,6.28906 C22.3229,5.8776 21.9115,5.67188 21.3906,5.67188 C20.8698,5.67188 20.4583,5.8776 20.1563,6.28906 C19.8542,6.70052 19.7031,7.27083 19.7031,8 M28.8125,7.96875 C28.0208,7.96875 27.4714,8.0625 27.1641,8.25 C26.8568,8.4375 26.7031,8.75 26.7031,9.1875 C26.7031,9.53125 26.8177,9.80729 27.0469,10.0156 C27.276,10.224 27.5885,10.3281 27.9844,10.3281 C28.5365,10.3281 28.9766,10.1328 29.3047,9.74219 C29.6328,9.35156 29.7969,8.83854 29.7969,8.20313 L29.7969,7.96875 L28.8125,7.96875 M30.7813,7.5625 L30.7813,11 L29.7969,11 L29.7969,10.0938 C29.5781,10.4583 29.2995,10.7266 28.9609,10.8984 C28.6224,11.0703 28.2083,11.1563 27.7188,11.1563 C27.1042,11.1563 26.6146,10.9844 26.25,10.6406 C25.8854,10.2969 25.7031,9.83333 25.7031,9.25 C25.7031,8.57292 25.9297,8.0625 26.3828,7.71875 C26.8359,7.375 27.5156,7.20313 28.4219,7.20313 L29.7969,7.20313 L29.7969,7.10938 C29.7969,6.65104 29.6484,6.29688 29.3516,6.04688 C29.0547,5.79688 28.6354,5.67188 28.0938,5.67188 C27.75,5.67188 27.4141,5.71354 27.0859,5.79688 C26.7578,5.88021 26.4427,6.00521 26.1406,6.17188 L26.1406,5.26563 C26.5052,5.11979 26.8594,5.01302 27.2031,4.94531 C27.5469,4.8776 27.875,4.84375 28.1875,4.84375 C29.0625,4.84375 29.7135,5.06771 30.1406,5.51563 C30.5677,5.96354 30.7813,6.64583 30.7813,7.5625 M36.2969,5.90625 C36.1927,5.84375 36.0755,5.79688 35.9453,5.76563 C35.8151,5.73438 35.6719,5.71875 35.5156,5.71875 C34.9531,5.71875 34.5234,5.90104 34.2266,6.26563 C33.9297,6.63021 33.7813,7.15104 33.7813,7.82813 L33.7813,11 L32.7813,11 L32.7813,4.98438 L33.7813,4.98438 L33.7813,5.92188 C33.9792,5.55729 34.2448,5.28646 34.5781,5.10938 C34.9115,4.93229 35.3177,4.84375 35.7969,4.84375 C35.8698,4.84375 35.9453,4.84635 36.0234,4.85156 C36.1016,4.85677 36.1927,4.86979 36.2969,4.89063 L36.2969,5.90625 M38.4688,3.875 L38.4688,6.89063 L39.8281,6.89063 C40.3281,6.89063 40.7161,6.75781 40.9922,6.49219 C41.2682,6.22656 41.4063,5.85417 41.4063,5.375 C41.4063,4.89583 41.2682,4.52604 40.9922,4.26563 C40.7161,4.00521 40.3281,3.875 39.8281,3.875 L38.4688,3.875 M37.375,2.98438 L39.8281,2.98438 C40.724,2.98438 41.401,3.1875 41.8594,3.59375 C42.3177,4 42.5469,4.59375 42.5469,5.375 C42.5469,6.16667 42.3177,6.76563 41.8594,7.17188 C41.401,7.57813 40.724,7.78125 39.8281,7.78125 L38.4688,7.78125 L38.4688,11 L37.375,11 L37.375,2.98438 M43.8594,8.625 L43.8594,4.98438 L44.8438,4.98438 L44.8438,8.59375 C44.8438,9.15625 44.9557,9.58073 45.1797,9.86719 C45.4036,10.1536 45.7344,10.2969 46.1719,10.2969 C46.7135,10.2969 47.138,10.1276 47.4453,9.78906 C47.7526,9.45052 47.9063,8.98438 47.9063,8.39063 L47.9063,4.98438 L48.8906,4.98438 L48.8906,11 L47.9063,11 L47.9063,10.0781 C47.6667,10.4427 47.388,10.7135 47.0703,10.8906 C46.7526,11.0677 46.3854,11.1563 45.9688,11.1563 C45.2813,11.1563 44.7578,10.9401 44.3984,10.5078 C44.0391,10.0755 43.8594,9.44792 43.8594,8.625 M55.25,8 C55.25,7.27083 55.099,6.70052 54.7969,6.28906 C54.4948,5.8776 54.0833,5.67188 53.5625,5.67188 C53.0417,5.67188 52.6328,5.8776 52.3359,6.28906 C52.0391,6.70052 51.8906,7.27083 51.8906,8 C51.8906,8.72917 52.0391,9.29948 52.3359,9.71094 C52.6328,10.1224 53.0417,10.3281 53.5625,10.3281 C54.0833,10.3281 54.4948,10.1224 54.7969,9.71094 C55.099,9.29948 55.25,8.72917 55.25,8 M51.8906,5.89063 C52.0885,5.53646 52.3464,5.27344 52.6641,5.10156 C52.9818,4.92969 53.3646,4.84375 53.8125,4.84375 C54.5417,4.84375 55.1328,5.13281 55.5859,5.71094 C56.0391,6.28906 56.2656,7.05208 56.2656,8 C56.2656,8.94792 56.0391,9.71094 55.5859,10.2891 C55.1328,10.8672 54.5417,11.1563 53.8125,11.1563 C53.3646,11.1563 52.9818,11.0703 52.6641,10.8984 C52.3464,10.7266 52.0885,10.4583 51.8906,10.0938 L51.8906,11 L50.8906,11 L50.8906,2.64063 L51.8906,2.64063 L51.8906,5.89063 M57.8906,2.64063 L58.8906,2.64063 L58.8906,11 L57.8906,11 L57.8906,2.64063 M60.9375,4.98438 L61.9375,4.98438 L61.9375,11 L60.9375,11 L60.9375,4.98438 M60.9375,2.64063 L61.9375,2.64063 L61.9375,3.89063 L60.9375,3.89063 L60.9375,2.64063 M67.8281,5.15625 L67.8281,6.09375 C67.5469,5.94792 67.2552,5.84115 66.9531,5.77344 C66.651,5.70573 66.3385,5.67188 66.0156,5.67188 C65.526,5.67188 65.1589,5.7474 64.9141,5.89844 C64.6693,6.04948 64.5469,6.27083 64.5469,6.5625 C64.5469,6.79167 64.6354,6.97135 64.8125,7.10156 C64.9896,7.23177 65.3438,7.35938 65.875,7.48438 L66.2031,7.5625 C66.9115,7.70833 67.4115,7.91927 67.7031,8.19531 C67.9948,8.47135 68.1406,8.85417 68.1406,9.34375 C68.1406,9.89583 67.9219,10.3359 67.4844,10.6641 C67.0469,10.9922 66.4375,11.1563 65.6563,11.1563 C65.3333,11.1563 64.9974,11.125 64.6484,11.0625 C64.2995,11 63.9323,10.9063 63.5469,10.7813 L63.5469,9.76563 C63.9115,9.95313 64.2708,10.0938 64.625,10.1875 C64.9792,10.2813 65.3333,10.3281 65.6875,10.3281 C66.1458,10.3281 66.5,10.2474 66.75,10.0859 C67,9.92448 67.125,9.70313 67.125,9.42188 C67.125,9.15104 67.0365,8.94271 66.8594,8.79688 C66.6823,8.65104 66.2865,8.51563 65.6719,8.39063 L65.3281,8.29688 C64.7135,8.17188 64.2708,7.97656 64,7.71094 C63.7292,7.44531 63.5938,7.07813 63.5938,6.60938 C63.5938,6.04688 63.7943,5.61198 64.1953,5.30469 C64.5964,4.9974 65.1667,4.84375 65.9063,4.84375 C66.2708,4.84375 66.6146,4.86979 66.9375,4.92188 C67.2604,4.97396 67.5573,5.05208 67.8281,5.15625 M74.7031,7.375 L74.7031,11 L73.7188,11 L73.7188,7.40625 C73.7188,6.83333 73.6094,6.40625 73.3906,6.125 C73.1719,5.84375 72.8385,5.70313 72.3906,5.70313 C71.8594,5.70313 71.4401,5.8724 71.1328,6.21094 C70.8255,6.54948 70.6719,7.01042 70.6719,7.59375 L70.6719,11 L69.6719,11 L69.6719,2.64063 L70.6719,2.64063 L70.6719,5.92188 C70.901,5.55729 71.1771,5.28646 71.5,5.10938 C71.8229,4.93229 72.1927,4.84375 72.6094,4.84375 C73.2969,4.84375 73.8177,5.05729 74.1719,5.48438 C74.526,5.91146 74.7031,6.54167 74.7031,7.375 M81.8281,7.75 L81.8281,8.23438 L77.2813,8.23438 C77.3229,8.91146 77.526,9.42708 77.8906,9.78125 C78.2552,10.1354 78.7656,10.3125 79.4219,10.3125 C79.8073,10.3125 80.1771,10.2656 80.5313,10.1719 C80.8854,10.0781 81.2396,9.94271 81.5938,9.76563 L81.5938,10.6875 C81.2396,10.8438 80.875,10.9609 80.5,11.0391 C80.125,11.1172 79.75,11.1563 79.375,11.1563 C78.4063,11.1563 77.6432,10.8776 77.0859,10.3203 C76.5286,9.76302 76.25,9.00521 76.25,8.04688 C76.25,7.06771 76.5156,6.28906 77.0469,5.71094 C77.5781,5.13281 78.2969,4.84375 79.2031,4.84375 C80.0052,4.84375 80.6432,5.10417 81.1172,5.625 C81.5911,6.14583 81.8281,6.85417 81.8281,7.75 M80.8281,7.45313 C80.8281,6.91146 80.6797,6.47917 80.3828,6.15625 C80.0859,5.83333 79.6927,5.67188 79.2031,5.67188 C78.651,5.67188 78.2109,5.82813 77.8828,6.14063 C77.5547,6.45313 77.3646,6.89063 77.3125,7.45313 L80.8281,7.45313 M86.9219,5.90625 C86.8177,5.84375 86.7005,5.79688 86.5703,5.76563 C86.4401,5.73438 86.2969,5.71875 86.1406,5.71875 C85.5781,5.71875 85.1484,5.90104 84.8516,6.26563 C84.5547,6.63021 84.4063,7.15104 84.4063,7.82813 L84.4063,11 L83.4063,11 L83.4063,4.98438 L84.4063,4.98438 L84.4063,5.92188 C84.6042,5.55729 84.8698,5.28646 85.2031,5.10938 C85.5365,4.93229 85.9427,4.84375 86.4219,4.84375 C86.4948,4.84375 86.5703,4.84635 86.6484,4.85156 C86.7266,4.85677 86.8177,4.86979 86.9219,4.89063 L86.9219,5.90625"/>
</g>

<g fill="none" stroke="#000000" stroke-opacity="1" stroke-width="1" stroke-linecap="square" stroke-linejoin="bevel" transform="matrix(1.99979,0,0,1.99979,48.2604,21.9977)"
font-family="sans" font-size="11" font-weight="100" font-style="normal" 
>
</g>

<g fill="none" stroke="#000000" stroke-opacity="1" stroke-width="1" stroke-linecap="square" stroke-linejoin="bevel" transform="matrix(1.99979,0,0,1.99979,48.2604,21.9977)"
font-family="Ubuntu" font-size="11" font-weight="400" font-style="normal" 
>
</g>

<g fill="none" stroke="#000000" stroke-opacity="1" stroke-width="1" stroke-linecap="square" stroke-linejoin="bevel" transform="matrix(1.99979,0,0,1.99979,-0.000799918,179.981)"
font-family="Ubuntu" font-size="11" font-weight="400" font-style="normal" 
>
</g>

<g fill="none" stroke="#000000" stroke-opacity="1" stroke-width="1" stroke-linecap="square" stroke-linejoin="bevel" transform="matrix(1.99979,0,0,1.99979,-0.000799918,179.981)"
font-family="Ubuntu" font-size="11" font-weight="400" font-style="normal" 
>
</g>

<g fill="none" stroke="#000000" stroke-opacity="1" stroke-width="1" stroke-linecap="square" stroke-linejoin="bevel" transform="matrix(1.99979,0,0,1.99979,-0.000799918,179.981)"
font-family="Ubuntu" font-size="11" font-weight="400" font-style="normal" 
>
</g>

<g fill="none" stroke="#000000" stroke-opacity="1" stroke-width="1" stroke-linecap="square" stroke-linejoin="round" transform="matrix(1.99979,0,0,1.99979,-0.000799918,179.981)"
font-family="Ubuntu" font-size="11" font-weight="400" font-style="normal" 
>
<path vector-effect="none" fill-rule="evenodd" d="M133.26,-18 C135.67,-18 138.06,-18 140.42,-18 "/>
</g>

<g fill="none" stroke="#000000" stroke-opacity="1" stroke-width="1" stroke-linecap="square" stroke-linejoin="bevel" transform="matrix(1.99979,0,0,1.99979,-0.000799918,179.981)"
font-family="Ubuntu" font-size="11" font-weight="400" font-style="normal" 
>
</g>

<g fill="none" stroke="#000000" stroke-opacity="1" stroke-width="1" stroke-linecap="square" stroke-linejoin="bevel" transform="matrix(1.99979,0,0,1.99979,-0.000799918,179.981)"
font-family="Ubuntu" font-size="11" font-weight="400" font-style="normal" 
>
</g>

<g fill="#000000" fill-opacity="1" stroke="#000000" stroke-opacity="1" stroke-width="1" stroke-linecap="square" stroke-linejoin="round" transform="matrix(1.99979,0,0,1.99979,-0.000799918,179.981)"
font-family="Ubuntu" font-size="11" font-weight="400" font-style="normal" 
>
<path vector-effect="none" fill-rule="evenodd" d="M140.42,-18 L140.42,-14.4545 L150.55,-18 L140.42,-21.5455 L140.42,-18"/>
</g>

<g fill="none" stroke="#000000" stroke-opacity="1" stroke-width="1" stroke-linecap="square" stroke-linejoin="bevel" transform="matrix(1.99979,0,0,1.99979,-0.000799918,179.981)"
font-family="Ubuntu" font-size="11" font-weight="400" font-style="normal" 
>
</g>

<g fill="none" stroke="#000000" stroke-opacity="1" stroke-width="1" stroke-linecap="square" stroke-linejoin="bevel" transform="matrix(1.99979,0,0,1.99979,-0.000799918,179.981)"
font-family="Ubuntu" font-size="11" font-weight="400" font-style="normal" 
>
</g>

<g fill="none" stroke="#000000" stroke-opacity="1" stroke-width="1" stroke-linecap="square" stroke-linejoin="bevel" transform="matrix(1.99979,0,0,1.99979,-0.000799918,179.981)"
font-family="Ubuntu" font-size="11" font-weight="400" font-style="normal" 
>
</g>

<g fill="none" stroke="#000000" stroke-opacity="1" stroke-width="1" stroke-linecap="square" stroke-linejoin="bevel" transform="matrix(1.99979,0,0,1.99979,-0.000799918,179.981)"
font-family="Ubuntu" font-size="11" font-weight="400" font-style="normal" 
>
</g>

<g fill="none" stroke="#000000" stroke-opacity="1" stroke-width="1" stroke-linecap="square" stroke-linejoin="round" transform="matrix(1.99979,0,0,1.99979,-0.000799918,179.981)"
font-family="Ubuntu" font-size="11" font-weight="400" font-style="normal" 
>
<path vector-effect="none" fill-rule="evenodd" d="M443.23,-45 C444.33,-45 445.44,-45 446.56,-45 "/>
</g>

<g fill="none" stroke="#000000" stroke-opacity="1" stroke-width="1" stroke-linecap="square" stroke-linejoin="bevel" transform="matrix(1.99979,0,0,1.99979,-0.000799918,179.981)"
font-family="Ubuntu" font-size="11" font-weight="400" font-style="normal" 
>
</g>

<g fill="none" stroke="#000000" stroke-opacity="1" stroke-width="1" stroke-linecap="square" stroke-linejoin="bevel" transform="matrix(1.99979,0,0,1.99979,-0.000799918,179.981)"
font-family="Ubuntu" font-size="11" font-weight="400" font-style="normal" 
>
</g>

<g fill="#000000" fill-opacity="1" stroke="#000000" stroke-opacity="1" stroke-width="1" stroke-linecap="square" stroke-linejoin="round" transform="matrix(1.99979,0,0,1.99979,-0.000799918,179.981)"
font-family="Ubuntu" font-size="11" font-weight="400" font-style="normal" 
>
<path vector-effect="none" fill-rule="evenodd" d="M446.56,-45 L446.56,-41.4265 L456.77,-45 L446.56,-48.5735 L446.56,-45"/>
</g>

<g fill="none" stroke="#000000" stroke-opacity="1" stroke-width="1" stroke-linecap="square" stroke-linejoin="bevel" transform="matrix(1.99979,0,0,1.99979,-0.000799918,179.981)"
font-family="Ubuntu" font-size="11" font-weight="400" font-style="normal" 
>
</g>

<g fill="none" stroke="#000000" stroke-opacity="1" stroke-width="1" stroke-linecap="square" stroke-linejoin="bevel" transform="matrix(1.99979,0,0,1.99979,-0.000799918,179.981)"
font-family="Ubuntu" font-size="11" font-weight="400" font-style="normal" 
>
</g>

<g fill="none" stroke="#000000" stroke-opacity="1" stroke-width="1" stroke-linecap="square" stroke-linejoin="bevel" transform="matrix(1.99979,0,0,1.99979,-0.000799918,179.981)"
font-family="Ubuntu" font-size="11" font-weight="400" font-style="normal" 
>
</g>

<g fill="none" stroke="#000000" stroke-opacity="1" stroke-width="1" stroke-linecap="square" stroke-linejoin="bevel" transform="matrix(1.99979,0,0,1.99979,-0.000799918,179.981)"
font-family="Ubuntu" font-size="11" font-weight="400" font-style="normal" 
>
</g>

<g fill="none" stroke="#000000" stroke-opacity="1" stroke-width="1" stroke-linecap="square" stroke-linejoin="round" transform="matrix(1.99979,0,0,1.99979,-0.000799918,179.981)"
font-family="Ubuntu" font-size="11" font-weight="400" font-style="normal" 
>
<path vector-effect="none" fill-rule="evenodd" d="M135.36,-72 C136.53,-72 137.7,-72 138.86,-72 "/>
</g>

<g fill="none" stroke="#000000" stroke-opacity="1" stroke-width="1" stroke-linecap="square" stroke-linejoin="bevel" transform="matrix(1.99979,0,0,1.99979,-0.000799918,179.981)"
font-family="Ubuntu" font-size="11" font-weight="400" font-style="normal" 
>
</g>

<g fill="none" stroke="#000000" stroke-opacity="1" stroke-width="1" stroke-linecap="square" stroke-linejoin="bevel" transform="matrix(1.99979,0,0,1.99979,-0.000799918,179.981)"
font-family="Ubuntu" font-size="11" font-weight="400" font-style="normal" 
>
</g>

<g fill="#000000" fill-opacity="1" stroke="#000000" stroke-opacity="1" stroke-width="1" stroke-linecap="square" stroke-linejoin="round" transform="matrix(1.99979,0,0,1.99979,-0.000799918,179.981)"
font-family="Ubuntu" font-size="11" font-weight="400" font-style="normal" 
>
<path vector-effect="none" fill-rule="evenodd" d="M138.86,-72 L138.86,-68.416 L149.1,-72 L138.86,-75.584 L138.86,-72"/>
</g>

<g fill="none" stroke="#000000" stroke-opacity="1" stroke-width="1" stroke-linecap="square" stroke-linejoin="bevel" transform="matrix(1.99979,0,0,1.99979,-0.000799918,179.981)"
font-family="Ubuntu" font-size="11" font-weight="400" font-style="normal" 
>
</g>

<g fill="none" stroke="#000000" stroke-opacity="1" stroke-width="1" stroke-linecap="square" stroke-linejoin="bevel" transform="matrix(1.99979,0,0,1.99979,-0.000799918,179.981)"
font-family="Ubuntu" font-size="11" font-weight="400" font-style="normal" 
>
</g>

<g fill="none" stroke="#000000" stroke-opacity="1" stroke-width="1" stroke-linecap="square" stroke-linejoin="bevel" transform="matrix(1.99979,0,0,1.99979,-0.000799918,179.981)"
font-family="Ubuntu" font-size="11" font-weight="400" font-style="normal" 
>
</g>

<g fill="none" stroke="#000000" stroke-opacity="1" stroke-width="1" stroke-linecap="square" stroke-linejoin="bevel" transform="matrix(1.99979,0,0,1.99979,-0.000799918,179.981)"
font-family="Ubuntu" font-size="11" font-weight="400" font-style="normal" 
>
</g>

<g fill="none" stroke="#000000" stroke-opacity="1" stroke-width="1" stroke-linecap="square" stroke-linejoin="round" transform="matrix(1.99979,0,0,1.99979,-0.000799918,179.981)"
font-family="Ubuntu" font-size="11" font-weight="400" font-style="normal" 
>
<path vector-effect="none" fill-rule="evenodd" d="M226.21,-62.405 C231.25,-61.149 236.49,-59.843 241.74,-58.537 "/>
</g>

<g fill="none" stroke="#000000" stroke-opacity="1" stroke-width="1" stroke-linecap="square" stroke-linejoin="bevel" transform="matrix(1.99979,0,0,1.99979,-0.000799918,179.981)"
font-family="Ubuntu" font-size="11" font-weight="400" font-style="normal" 
>
</g>

<g fill="none" stroke="#000000" stroke-opacity="1" stroke-width="1" stroke-linecap="square" stroke-linejoin="bevel" transform="matrix(1.99979,0,0,1.99979,-0.000799918,179.981)"
font-family="Ubuntu" font-size="11" font-weight="400" font-style="normal" 
>
</g>

<g fill="#000000" fill-opacity="1" stroke="#000000" stroke-opacity="1" stroke-width="1" stroke-linecap="square" stroke-linejoin="round" transform="matrix(1.99979,0,0,1.99979,-0.000799918,179.981)"
font-family="Ubuntu" font-size="11" font-weight="400" font-style="normal" 
>
<path vector-effect="none" fill-rule="evenodd" d="M241.74,-58.537 L240.865,-55.0265 L251.77,-56.038 L242.615,-62.0475 L241.74,-58.537"/>
</g>

<g fill="none" stroke="#000000" stroke-opacity="1" stroke-width="1" stroke-linecap="square" stroke-linejoin="bevel" transform="matrix(1.99979,0,0,1.99979,-0.000799918,179.981)"
font-family="Ubuntu" font-size="11" font-weight="400" font-style="normal" 
>
</g>

<g fill="none" stroke="#000000" stroke-opacity="1" stroke-width="1" stroke-linecap="square" stroke-linejoin="bevel" transform="matrix(1.99979,0,0,1.99979,-0.000799918,179.981)"
font-family="Ubuntu" font-size="11" font-weight="400" font-style="normal" 
>
</g>

<g fill="none" stroke="#000000" stroke-opacity="1" stroke-width="1" stroke-linecap="square" stroke-linejoin="bevel" transform="matrix(1.99979,0,0,1.99979,-0.000799918,179.981)"
font-family="Ubuntu" font-size="11" font-weight="400" font-style="normal" 
>
</g>

<g fill="none" stroke="#000000" stroke-opacity="1" stroke-width="1" stroke-linecap="square" stroke-linejoin="bevel" transform="matrix(1.99979,0,0,1.99979,-0.000799918,179.981)"
font-family="Ubuntu" font-size="11" font-weight="400" font-style="normal" 
>
</g>

<g fill="none" stroke="#000000" stroke-opacity="1" stroke-width="1" stroke-linecap="square" stroke-linejoin="round" transform="matrix(1.99979,0,0,1.99979,-0.000799918,179.981)"
font-family="Ubuntu" font-size="11" font-weight="400" font-style="normal" 
>
<path vector-effect="none" fill-rule="evenodd" d="M570.37,-45 C571.5,-45 572.64,-45 573.77,-45 "/>
</g>

<g fill="none" stroke="#000000" stroke-opacity="1" stroke-width="1" stroke-linecap="square" stroke-linejoin="bevel" transform="matrix(1.99979,0,0,1.99979,-0.000799918,179.981)"
font-family="Ubuntu" font-size="11" font-weight="400" font-style="normal" 
>
</g>

<g fill="none" stroke="#000000" stroke-opacity="1" stroke-width="1" stroke-linecap="square" stroke-linejoin="bevel" transform="matrix(1.99979,0,0,1.99979,-0.000799918,179.981)"
font-family="Ubuntu" font-size="11" font-weight="400" font-style="normal" 
>
</g>

<g fill="#000000" fill-opacity="1" stroke="#000000" stroke-opacity="1" stroke-width="1" stroke-linecap="square" stroke-linejoin="round" transform="matrix(1.99979,0,0,1.99979,-0.000799918,179.981)"
font-family="Ubuntu" font-size="11" font-weight="400" font-style="normal" 
>
<path vector-effect="none" fill-rule="evenodd" d="M573.77,-45 L573.77,-41.4685 L583.86,-45 L573.77,-48.5315 L573.77,-45"/>
</g>

<g fill="none" stroke="#000000" stroke-opacity="1" stroke-width="1" stroke-linecap="square" stroke-linejoin="bevel" transform="matrix(1.99979,0,0,1.99979,-0.000799918,179.981)"
font-family="Ubuntu" font-size="11" font-weight="400" font-style="normal" 
>
</g>

<g fill="none" stroke="#000000" stroke-opacity="1" stroke-width="1" stroke-linecap="square" stroke-linejoin="bevel" transform="matrix(1.99979,0,0,1.99979,-0.000799918,179.981)"
font-family="Ubuntu" font-size="11" font-weight="400" font-style="normal" 
>
</g>

<g fill="none" stroke="#000000" stroke-opacity="1" stroke-width="1" stroke-linecap="square" stroke-linejoin="bevel" transform="matrix(1.99979,0,0,1.99979,-0.000799918,179.981)"
font-family="Ubuntu" font-size="11" font-weight="400" font-style="normal" 
>
</g>

<g fill="none" stroke="#000000" stroke-opacity="1" stroke-width="1" stroke-linecap="square" stroke-linejoin="bevel" transform="matrix(1.99979,0,0,1.99979,-0.000799918,179.981)"
font-family="Ubuntu" font-size="11" font-weight="400" font-style="normal" 
>
</g>

<g fill="none" stroke="#000000" stroke-opacity="1" stroke-width="1" stroke-linecap="square" stroke-linejoin="round" transform="matrix(1.99979,0,0,1.99979,-0.000799918,179.981)"
font-family="Ubuntu" font-size="11" font-weight="400" font-style="normal" 
>
<path vector-effect="none" fill-rule="evenodd" d="M352.19,-45 C353.35,-45 354.51,-45 355.67,-45 "/>
</g>

<g fill="none" stroke="#000000" stroke-opacity="1" stroke-width="1" stroke-linecap="square" stroke-linejoin="bevel" transform="matrix(1.99979,0,0,1.99979,-0.000799918,179.981)"
font-family="Ubuntu" font-size="11" font-weight="400" font-style="normal" 
>
</g>

<g fill="none" stroke="#000000" stroke-opacity="1" stroke-width="1" stroke-linecap="square" stroke-linejoin="bevel" transform="matrix(1.99979,0,0,1.99979,-0.000799918,179.981)"
font-family="Ubuntu" font-size="11" font-weight="400" font-style="normal" 
>
</g>

<g fill="#000000" fill-opacity="1" stroke="#000000" stroke-opacity="1" stroke-width="1" stroke-linecap="square" stroke-linejoin="round" transform="matrix(1.99979,0,0,1.99979,-0.000799918,179.981)"
font-family="Ubuntu" font-size="11" font-weight="400" font-style="normal" 
>
<path vector-effect="none" fill-rule="evenodd" d="M355.67,-45 L355.67,-41.4055 L365.94,-45 L355.67,-48.5945 L355.67,-45"/>
</g>

<g fill="none" stroke="#000000" stroke-opacity="1" stroke-width="1" stroke-linecap="square" stroke-linejoin="bevel" transform="matrix(1.99979,0,0,1.99979,-0.000799918,179.981)"
font-family="Ubuntu" font-size="11" font-weight="400" font-style="normal" 
>
</g>

<g fill="none" stroke="#000000" stroke-opacity="1" stroke-width="1" stroke-linecap="square" stroke-linejoin="bevel" transform="matrix(1.99979,0,0,1.99979,-0.000799918,179.981)"
font-family="Ubuntu" font-size="11" font-weight="400" font-style="normal" 
>
</g>

<g fill="none" stroke="#000000" stroke-opacity="1" stroke-width="1" stroke-linecap="square" stroke-linejoin="bevel" transform="matrix(1.99979,0,0,1.99979,-0.000799918,179.981)"
font-family="Ubuntu" font-size="11" font-weight="400" font-style="normal" 
>
</g>

<g fill="none" stroke="#000000" stroke-opacity="1" stroke-width="1" stroke-linecap="square" stroke-linejoin="bevel" transform="matrix(1.99979,0,0,1.99979,-0.000799918,179.981)"
font-family="Ubuntu" font-size="11" font-weight="400" font-style="normal" 
>
</g>

<g fill="none" stroke="#000000" stroke-opacity="1" stroke-width="1" stroke-linecap="square" stroke-linejoin="round" transform="matrix(1.99979,0,0,1.99979,-0.000799918,179.981)"
font-family="Ubuntu" font-size="11" font-weight="400" font-style="normal" 
>
<path vector-effect="none" fill-rule="evenodd" d="M224.69,-27.216 C230.27,-28.606 236.12,-30.063 241.97,-31.52 "/>
</g>

<g fill="none" stroke="#000000" stroke-opacity="1" stroke-width="1" stroke-linecap="square" stroke-linejoin="bevel" transform="matrix(1.99979,0,0,1.99979,-0.000799918,179.981)"
font-family="Ubuntu" font-size="11" font-weight="400" font-style="normal" 
>
</g>

<g fill="none" stroke="#000000" stroke-opacity="1" stroke-width="1" stroke-linecap="square" stroke-linejoin="bevel" transform="matrix(1.99979,0,0,1.99979,-0.000799918,179.981)"
font-family="Ubuntu" font-size="11" font-weight="400" font-style="normal" 
>
</g>

<g fill="#000000" fill-opacity="1" stroke="#000000" stroke-opacity="1" stroke-width="1" stroke-linecap="square" stroke-linejoin="round" transform="matrix(1.99979,0,0,1.99979,-0.000799918,179.981)"
font-family="Ubuntu" font-size="11" font-weight="400" font-style="normal" 
>
<path vector-effect="none" fill-rule="evenodd" d="M241.97,-31.52 L242.824,-28.0935 L251.76,-33.96 L241.116,-34.9465 L241.97,-31.52"/>
</g>

<g fill="none" stroke="#000000" stroke-opacity="1" stroke-width="1" stroke-linecap="square" stroke-linejoin="bevel" transform="matrix(1.99979,0,0,1.99979,-0.000799918,179.981)"
font-family="Ubuntu" font-size="11" font-weight="400" font-style="normal" 
>
</g>

<g fill="none" stroke="#000000" stroke-opacity="1" stroke-width="1" stroke-linecap="square" stroke-linejoin="bevel" transform="matrix(1,0,0,1,0,0)"
font-family="Ubuntu" font-size="11" font-weight="400" font-style="normal" 
>
</g>
</g>
</svg>
